<svg width="191" height="206" viewBox="0 0 191 206" fill="none" xmlns="http://www.w3.org/2000/svg">
<path d="M25.564 182.136H37.42V183.288H25.564V182.136ZM24.412 170.616H38.572V171.752H24.412V170.616ZM24.908 173.352H26.076V184.28H24.908V173.352ZM36.94 173.352H38.124V184.232H36.94V173.352ZM30.828 170.968H32.044V174.056H30.828V170.968ZM30.908 173.96H31.964V180.296H30.908V173.96ZM28.62 177.608V179.704H34.268V177.608H28.62ZM28.62 174.552V176.632H34.268V174.552H28.62ZM27.596 173.528H35.324V180.728H27.596V173.528ZM45.18 176.68H49.564V177.672H45.18V176.68ZM45.18 179.464H49.612V180.456H45.18V179.464ZM41.884 182.328H53.18V183.448H41.884V182.328ZM41.148 173.784H53.836V184.296H52.62V174.904H42.316V184.296H41.148V173.784ZM44.62 174.488H45.708V182.84H44.62V174.488ZM49.1 174.488H50.204V182.792H49.1V174.488ZM46.7 171.16L48.092 171.48C47.756 172.552 47.42 173.784 47.1 174.584L46.012 174.28C46.268 173.416 46.588 172.088 46.7 171.16ZM40.428 170.632H54.604V171.784H40.428V170.632ZM62.86 170.36C62.716 170.984 62.54 171.864 62.124 172.936C61.724 173.912 61.132 174.984 60.492 175.816C61.116 175.448 62.028 175.224 62.732 175.224C63.964 175.224 64.924 175.96 64.924 177.256C64.924 178.088 64.956 179.928 64.972 180.92H63.74C63.804 180.072 63.82 178.424 63.804 177.592C63.788 176.664 63.148 176.232 62.316 176.232C61.292 176.232 60.284 176.744 59.548 177.4C59.084 177.848 58.636 178.424 58.108 179.08L57.004 178.264C59.308 176.056 60.38 174.2 60.924 172.84C61.276 171.96 61.5 171 61.548 170.248L62.86 170.36ZM57.372 172.088C58.236 172.2 59.34 172.248 60.076 172.248C62.236 172.248 65.004 172.12 67.26 171.72V172.904C65.02 173.24 62.044 173.384 60.012 173.384C59.324 173.384 58.268 173.352 57.372 173.288V172.088ZM69.596 175.944C69.196 176.072 68.62 176.296 68.188 176.456C67.052 176.904 65.532 177.512 63.98 178.312C62.396 179.144 61.276 180.008 61.276 181.112C61.276 182.36 62.508 182.552 64.156 182.552C65.404 182.552 67.132 182.408 68.54 182.152L68.492 183.448C67.276 183.592 65.5 183.72 64.108 183.72C61.836 183.72 59.996 183.224 59.996 181.288C59.996 179.336 61.98 178.136 63.884 177.16C65.404 176.376 66.7 175.88 67.756 175.384C68.236 175.16 68.636 174.984 69.084 174.76L69.596 175.944ZM74.812 170.568H85.964V171.768H74.812V170.568ZM74.956 174.616H84.124V175.784H74.956V174.616ZM74.22 170.568H75.42V174.936C75.42 177.656 75.148 181.608 73.308 184.248C73.1 184.04 72.604 183.688 72.3 183.544C74.06 181.048 74.22 177.496 74.22 174.936V170.568ZM83.788 174.616H84.028L84.268 174.568L85.084 174.92C83.66 180.184 79.916 182.984 75.596 184.28C75.452 183.96 75.148 183.448 74.892 183.192C78.94 182.136 82.572 179.416 83.788 174.856V174.616ZM77.516 175.208C78.892 179.4 81.82 182.152 86.62 183.208C86.316 183.48 85.98 183.976 85.804 184.312C80.876 183.096 77.932 180.168 76.364 175.544L77.516 175.208ZM95.996 170.84H102.252V171.976H95.996V170.84ZM95.308 175.432H102.828V176.568H95.308V175.432ZM97.596 176.024L98.892 176.28C98.444 178.504 97.788 181.32 97.212 183.064L96.124 182.808C96.684 181.032 97.292 178.104 97.596 176.024ZM94.908 182.616C96.652 182.504 99.404 182.312 102.076 182.104V183.192C99.58 183.432 96.972 183.64 95.116 183.8L94.908 182.616ZM99.9 179.208L100.94 178.792C101.836 180.376 102.636 182.44 102.956 183.832L101.836 184.28C101.564 182.904 100.764 180.792 99.9 179.208ZM88.364 171.288H95.212V172.36H88.364V171.288ZM88.14 180.424H95.404V181.496H88.14V180.424ZM91.244 169.576H92.38V173.992H91.244V169.576ZM91.34 173.976H92.268V178.632H92.364V184.28H91.244V178.632H91.34V173.976ZM89.708 176.776V178.248H93.964V176.776H89.708ZM89.708 174.472V175.912H93.964V174.472H89.708ZM88.748 173.576H94.972V179.144H88.748V173.576ZM111.868 171.672C111.772 171.32 111.628 170.84 111.468 170.408L112.844 170.248C112.988 171.176 113.404 172.552 113.772 173.592C114.268 174.968 115.084 176.456 115.772 177.384C115.98 177.704 116.22 177.976 116.46 178.232L115.82 179.144C115.052 178.952 113.1 178.776 111.948 178.696L112.044 177.64C112.94 177.72 114.124 177.816 114.7 177.88C114.028 176.856 113.148 175.272 112.62 173.816C112.268 172.904 112.044 172.168 111.868 171.672ZM106.012 172.92C108.684 173.224 111.212 173.24 113.036 173.048C114.3 172.904 115.884 172.616 117.132 172.184L117.276 173.448C116.14 173.768 114.62 174.024 113.452 174.168C111.42 174.408 108.876 174.424 106.044 174.184L106.012 172.92ZM108.492 178.008C108.012 178.792 107.724 179.48 107.724 180.232C107.724 181.768 109.116 182.424 111.5 182.456C113.116 182.456 114.508 182.296 115.612 182.056L115.564 183.336C114.556 183.512 113.212 183.688 111.42 183.672C108.38 183.656 106.46 182.568 106.46 180.392C106.46 179.496 106.78 178.664 107.244 177.72L108.492 178.008ZM131.324 170.664C131.292 170.936 131.26 171.48 131.26 171.832C131.244 172.824 131.244 173.944 131.212 174.76C131.18 175.992 131.132 177.72 130.972 178.552C130.828 179.272 130.46 179.48 129.74 179.48C129.148 179.48 128.044 179.336 127.628 179.256L127.644 178.136C128.204 178.264 128.876 178.344 129.244 178.344C129.644 178.344 129.804 178.28 129.868 177.912C129.964 177.304 130.028 175.912 130.044 174.776C130.06 173.88 130.06 172.76 130.06 171.88C130.06 171.512 130.012 170.952 129.964 170.664H131.324ZM125.004 171.176C124.956 171.544 124.94 171.976 124.94 172.472C124.924 174.2 124.876 178.6 124.908 179.704C124.972 181.432 124.988 182.04 127.756 182.04C129.5 182.04 131.484 181.864 132.524 181.672L132.476 183.016C131.404 183.128 129.452 183.288 127.82 183.288C124.124 183.288 123.772 182.424 123.708 179.88C123.676 178.536 123.692 173.256 123.692 172.52C123.692 172.04 123.676 171.656 123.596 171.176H125.004ZM120.22 175C120.716 175 121.308 174.968 121.884 174.904C123.612 174.76 129.708 174.12 132.988 173.944C133.404 173.928 133.868 173.896 134.236 173.864V175.128C133.996 175.112 133.388 175.128 132.988 175.128C130.428 175.176 123.996 175.848 121.964 176.088C121.484 176.152 120.796 176.248 120.348 176.312L120.22 175ZM139.308 171.224C139.66 171.256 140.108 171.272 140.428 171.272C141.276 171.272 145.068 171.16 145.916 171.08C146.396 171.032 146.62 171 146.796 170.936L147.532 171.88C147.244 172.072 146.924 172.28 146.62 172.52C145.836 173.128 143.66 175 142.412 176.024C143.148 175.784 143.916 175.704 144.636 175.704C147.292 175.704 149.196 177.288 149.196 179.448C149.196 182.024 147.068 183.704 143.676 183.704C141.5 183.704 140.172 182.76 140.172 181.416C140.172 180.328 141.164 179.336 142.636 179.336C144.764 179.336 145.836 180.84 145.948 182.456L144.796 182.648C144.7 181.288 143.916 180.312 142.636 180.312C141.9 180.312 141.34 180.76 141.34 181.32C141.34 182.104 142.22 182.568 143.484 182.568C146.204 182.568 147.916 181.448 147.916 179.448C147.916 177.864 146.412 176.696 144.316 176.696C141.66 176.696 140.22 177.816 138.204 179.88L137.276 178.952C138.604 177.864 140.668 176.136 141.58 175.352C142.476 174.616 144.492 172.936 145.292 172.216C144.444 172.264 141.244 172.392 140.412 172.44C140.044 172.472 139.692 172.488 139.34 172.536L139.308 171.224ZM164.508 173.464C164.156 173.672 163.756 173.896 163.276 174.136C162.204 174.696 159.98 175.752 158.412 176.776C156.924 177.752 156.028 178.808 156.028 180.008C156.028 181.336 157.308 182.168 159.836 182.168C161.564 182.168 163.708 181.944 164.956 181.624L164.94 183.064C163.74 183.272 161.884 183.448 159.884 183.448C156.876 183.448 154.7 182.552 154.7 180.152C154.7 178.424 155.868 177.064 157.756 175.816C159.388 174.728 161.628 173.656 162.668 173.064C163.132 172.792 163.484 172.584 163.82 172.312L164.508 173.464ZM156.412 170.552C157.148 172.6 158.14 174.6 158.876 175.896L157.788 176.552C156.972 175.24 156.012 173.08 155.148 171.096L156.412 170.552ZM6.93688 194.672C8.98488 195.872 11.6089 197.712 13.1929 198.992L12.2489 200.112C10.7769 198.768 8.04088 196.8 6.05688 195.568L6.93688 194.672ZM14.2489 191.76C14.1209 191.984 13.9609 192.352 13.8809 192.608C13.4009 194.24 12.3929 196.368 10.9849 198.096C9.52888 199.888 7.44888 201.6 4.40887 202.72L3.27288 201.712C6.24888 200.816 8.42488 199.12 9.86488 197.408C11.0969 195.936 12.1049 193.904 12.4729 192.416H6.55288L7.06488 191.264H12.1529C12.5849 191.264 12.9369 191.216 13.1929 191.12L14.2489 191.76ZM8.85688 189.44C8.58488 189.856 8.29688 190.4 8.13688 190.704C7.19288 192.464 5.38488 194.88 2.82488 196.64L1.76888 195.824C4.50488 194.112 6.15288 191.712 6.88888 190.24C7.04888 189.968 7.30488 189.392 7.40088 188.976L8.85688 189.44ZM17.6729 196.224C20.4409 195.488 22.8729 194.352 24.6489 193.248C26.3289 192.192 27.9289 190.816 29.0329 189.472L30.1049 190.48C28.7289 191.904 27.0489 193.248 25.1769 194.416C23.4169 195.504 20.8729 196.672 18.2969 197.472L17.6729 196.224ZM24.3929 193.904L25.7689 193.488V200.8C25.7689 201.392 25.8009 202.192 25.8809 202.496H24.2969C24.3449 202.192 24.3929 201.392 24.3929 200.8V193.904ZM47.1449 191.856C46.9849 192.032 46.8409 192.208 46.7449 192.352C45.5449 194.32 43.3369 197.136 40.5049 199.184L39.5129 198.288C42.0729 196.512 44.1369 193.92 44.9849 192.4C43.5449 192.4 36.4889 192.4 35.5769 192.4C34.9369 192.4 34.2489 192.448 33.9449 192.48V191.056C34.3769 191.12 35.0169 191.168 35.5769 191.168C36.3929 191.168 43.5129 191.168 45.1129 191.168C45.5449 191.168 45.9129 191.136 46.1369 191.056L47.1449 191.856ZM39.6089 199.456C38.6489 198.496 36.8089 196.912 35.9609 196.304L36.9849 195.472C37.7209 196 39.5769 197.52 40.7289 198.64C41.7369 199.648 42.9849 200.96 43.6729 201.792L42.5049 202.72C41.9129 201.904 40.6329 200.496 39.6089 199.456ZM49.9129 195.072C50.4089 195.12 51.2409 195.168 52.1529 195.168C53.3209 195.168 59.7369 195.168 60.9209 195.168C61.7209 195.168 62.2809 195.104 62.6489 195.072V196.64C62.3129 196.624 61.6409 196.576 60.9369 196.576C59.7209 196.576 53.3369 196.576 52.1529 196.576C51.2729 196.576 50.4249 196.608 49.9129 196.64V195.072ZM71.0809 189.584C71.0169 189.872 70.9529 190.224 70.8889 190.528C70.7769 191.104 70.5689 192.416 70.3449 193.408C69.8009 195.664 68.6649 199.648 66.8569 202.56L65.5449 202.048C67.3689 199.6 68.6489 195.328 69.0809 193.376C69.3849 192.096 69.5929 190.656 69.5929 189.424L71.0809 189.584ZM76.5849 191.424C77.5769 192.72 78.9689 195.632 79.5129 197.104L78.2649 197.696C77.8009 196.064 76.5369 193.28 75.4169 191.952L76.5849 191.424ZM65.3209 193.088C65.8169 193.12 66.2329 193.104 66.7449 193.088C67.9449 193.056 71.1929 192.704 72.2809 192.704C73.7049 192.704 74.8729 193.248 74.8729 195.408C74.8729 197.312 74.6169 199.856 73.9449 201.184C73.4489 202.256 72.6489 202.528 71.6089 202.528C71.0009 202.528 70.2329 202.416 69.7369 202.288L69.5129 200.96C70.1849 201.168 71.0329 201.28 71.4809 201.28C72.0729 201.28 72.5529 201.152 72.8729 200.464C73.3849 199.376 73.6409 197.296 73.6409 195.568C73.6409 194.096 72.9689 193.824 71.9449 193.824C70.8729 193.824 67.8649 194.192 66.8889 194.288C66.5209 194.336 65.8649 194.416 65.4489 194.48L65.3209 193.088ZM76.7609 189.104C77.1609 189.68 77.7369 190.656 78.0729 191.312L77.2089 191.696C76.8889 191.04 76.3449 190.08 75.8969 189.472L76.7609 189.104ZM78.5209 188.464C78.9529 189.056 79.5609 190.064 79.8809 190.656L79.0009 191.04C78.6649 190.336 78.1369 189.424 77.6729 188.832L78.5209 188.464ZM84.3129 195.648H92.2489V196.64H84.3129V195.648ZM84.0089 198.384H92.5849V199.408H84.0089V198.384ZM89.3369 195.968H90.4249V202.992H89.3369V195.968ZM86.0569 196.016H87.0969V198.928C87.0969 199.904 86.7129 202 84.9049 203.216C84.7449 202.992 84.3769 202.656 84.1049 202.496C85.7209 201.504 86.0569 199.808 86.0569 198.928V196.016ZM82.3289 191.472H86.8249V192.336H82.3289V191.472ZM89.7049 191.472H94.2329V192.336H89.7049V191.472ZM93.7689 189.248H94.9529V201.728C94.9529 202.448 94.7929 202.832 94.3129 203.04C93.8329 203.248 93.0329 203.264 91.8169 203.264C91.7689 202.944 91.6089 202.384 91.4329 202.048C92.3129 202.08 93.1769 202.08 93.4329 202.064C93.6889 202.064 93.7689 201.968 93.7689 201.728V189.248ZM82.4249 189.248H87.5609V194.64H82.4249V193.728H86.4249V190.176H82.4249V189.248ZM94.3449 189.248V190.176H90.1209V193.744H94.3449V194.656H88.9689V189.248H94.3449ZM81.7049 189.248H82.8889V203.296H81.7049V189.248ZM104.745 201.488H110.329V202.576H104.745V201.488ZM104.121 196.8H110.953V203.232H109.769V197.904H105.273V203.296H104.121V196.8ZM103.033 194.112C104.921 194.016 107.897 193.856 110.745 193.664L110.729 194.736C108.025 194.944 105.161 195.168 103.177 195.296L103.033 194.112ZM108.329 191.536L109.289 191.04C110.361 192.368 111.465 194.16 111.897 195.344L110.841 195.92C110.457 194.72 109.385 192.896 108.329 191.536ZM106.153 188.56L107.465 188.832C106.809 190.784 105.897 193.232 105.145 194.752L104.121 194.464C104.841 192.912 105.705 190.352 106.153 188.56ZM96.9849 191.872H102.265V193.008H96.9849V191.872ZM99.4169 188.56L100.569 188.688C99.9129 191.888 98.8889 196.208 98.1369 198.88L97.1449 198.336C97.8649 195.904 98.8569 191.6 99.4169 188.56ZM97.7849 197.856L98.4569 197.008C100.249 198.016 102.377 199.552 103.337 200.736L102.601 201.712C101.657 200.512 99.5769 198.896 97.7849 197.856ZM101.801 191.872H102.009L102.217 191.84L102.937 191.984C102.505 198.176 100.777 201.568 97.8329 203.328C97.6569 203.04 97.3369 202.608 97.0809 202.368C99.7369 200.96 101.417 197.552 101.801 192.128V191.872ZM120.665 190.672C120.569 190.32 120.425 189.84 120.265 189.408L121.641 189.248C121.785 190.176 122.201 191.552 122.569 192.592C123.065 193.968 123.881 195.456 124.569 196.384C124.777 196.704 125.017 196.976 125.257 197.232L124.617 198.144C123.849 197.952 121.897 197.776 120.745 197.696L120.841 196.64C121.737 196.72 122.921 196.816 123.497 196.88C122.825 195.856 121.945 194.272 121.417 192.816C121.065 191.904 120.841 191.168 120.665 190.672ZM114.809 191.92C117.481 192.224 120.009 192.24 121.833 192.048C123.097 191.904 124.681 191.616 125.929 191.184L126.073 192.448C124.937 192.768 123.417 193.024 122.249 193.168C120.217 193.408 117.673 193.424 114.841 193.184L114.809 191.92ZM117.289 197.008C116.809 197.792 116.521 198.48 116.521 199.232C116.521 200.768 117.913 201.424 120.297 201.456C121.913 201.456 123.305 201.296 124.409 201.056L124.361 202.336C123.353 202.512 122.009 202.688 120.217 202.672C117.177 202.656 115.257 201.568 115.257 199.392C115.257 198.496 115.577 197.664 116.041 196.72L117.289 197.008ZM143.881 200.784C143.017 201.648 142.025 202.128 140.937 202.128C139.865 202.128 139.161 201.424 139.161 200.112C139.161 198.32 139.753 195.696 139.753 194.144C139.753 193.216 139.289 192.816 138.473 192.816C136.969 192.816 134.649 194.8 133.145 196.624L133.161 195.04C134.153 193.952 136.809 191.648 138.777 191.648C140.281 191.648 141.017 192.496 141.017 193.792C141.017 195.392 140.409 198.144 140.409 199.76C140.409 200.304 140.681 200.736 141.257 200.736C142.009 200.736 142.857 200.272 143.673 199.424L143.881 200.784ZM133.129 193.136C132.601 193.216 130.873 193.424 129.689 193.616L129.545 192.288C129.897 192.304 130.201 192.304 130.601 192.272C131.449 192.224 133.449 191.984 134.185 191.744L134.649 192.288C134.377 192.704 133.945 193.392 133.673 193.84L133.193 196.032C132.457 197.168 130.969 199.328 129.961 200.72L129.161 199.632C130.153 198.384 132.313 195.456 132.937 194.4L133.001 193.568L133.129 193.136ZM132.969 190.496C132.969 190.128 132.985 189.712 132.905 189.312L134.409 189.36C134.185 190.4 133.705 194.976 133.705 197.792C133.705 199.248 133.705 200.224 133.769 201.648C133.785 201.92 133.833 202.32 133.849 202.624H132.473C132.505 202.32 132.521 201.936 132.521 201.68C132.521 200.128 132.537 199.328 132.553 197.568C132.585 196.16 132.969 191.088 132.969 190.496ZM153.449 189.312C153.417 189.584 153.385 189.904 153.369 190.384C153.337 191.024 153.337 193.168 153.337 194.512C153.337 196.624 153.577 199.424 153.577 200.496C153.577 201.616 152.841 202.752 150.761 202.752C148.457 202.752 147.193 201.936 147.193 200.384C147.193 198.928 148.585 197.952 150.889 197.952C154.265 197.952 156.905 199.776 158.137 200.784L157.401 201.92C155.961 200.592 153.593 198.992 150.745 198.992C149.209 198.992 148.393 199.584 148.393 200.32C148.393 201.072 149.017 201.616 150.601 201.616C151.529 201.616 152.313 201.344 152.313 200.224C152.313 198.992 152.153 195.92 152.153 194.512C152.153 193.072 152.153 191.392 152.153 190.272C152.153 190 152.137 189.52 152.089 189.312H153.449ZM147.337 191.04C148.361 191.232 150.361 191.392 151.417 191.392C153.449 191.392 155.593 191.248 157.673 190.912V192.08C155.865 192.288 153.577 192.496 151.433 192.496C150.329 192.496 148.361 192.352 147.353 192.224L147.337 191.04ZM147.257 194.448C148.393 194.624 150.217 194.736 151.273 194.736C153.593 194.736 155.721 194.576 157.801 194.272V195.472C155.625 195.744 153.673 195.856 151.273 195.856C150.169 195.856 148.409 195.776 147.273 195.648L147.257 194.448ZM170.329 189.328C170.297 189.52 170.249 190.144 170.249 190.336C170.201 191.376 170.233 194.464 170.249 195.744L169.033 195.12C169.033 194.416 169.017 191.232 168.969 190.352C168.937 189.92 168.889 189.472 168.857 189.328H170.329ZM161.817 191.568C163.993 191.536 167.993 191.392 170.457 191.392C172.409 191.392 174.393 191.392 175.145 191.408L175.129 192.592C174.233 192.544 172.793 192.512 170.441 192.512C167.689 192.512 164.265 192.624 161.849 192.8L161.817 191.568ZM170.217 196.208C170.217 198.352 169.225 199.424 167.769 199.424C166.425 199.424 165.129 198.48 165.129 196.736C165.129 195.152 166.441 193.968 167.961 193.968C169.817 193.968 170.761 195.344 170.761 197.184C170.761 199.36 169.705 201.76 165.993 202.864L164.921 201.824C167.833 201.136 169.529 199.712 169.529 197.072C169.529 195.632 168.825 195.024 167.961 195.024C167.113 195.024 166.329 195.68 166.329 196.72C166.329 197.728 167.081 198.304 167.961 198.304C168.953 198.304 169.593 197.472 169.337 195.76L170.217 196.208ZM177.807 198.112C179.151 198.112 180.239 199.2 180.239 200.544C180.239 201.888 179.151 202.976 177.807 202.976C176.463 202.976 175.359 201.888 175.359 200.544C175.359 199.2 176.463 198.112 177.807 198.112ZM177.807 202.16C178.703 202.16 179.423 201.44 179.423 200.544C179.423 199.648 178.703 198.928 177.807 198.928C176.911 198.928 176.175 199.648 176.175 200.544C176.175 201.44 176.911 202.16 177.807 202.16Z" fill="#EFEAD8"/>
<g filter="url(#filter0_d_917_1255)">
<path d="M50.6154 30.9661C50.6154 29.7161 51.6297 28.7028 52.8808 28.7028C54.132 28.7028 55.1462 29.7161 55.1462 30.9661V49.5891C55.1462 50.8391 54.132 51.8525 52.8808 51.8525C51.6297 51.8525 50.6154 50.8391 50.6154 49.5891V30.9661Z" fill="#27374D" stroke="black" stroke-width="3"/>
<path d="M130.937 32.6591C130.937 31.4091 131.952 30.3958 133.203 30.3958C134.454 30.3958 135.468 31.4091 135.468 32.6591V39.7697C135.468 41.0197 134.454 42.033 133.203 42.033C131.952 42.033 130.937 41.0197 130.937 39.7697V32.6591Z" fill="#27374D" stroke="black" stroke-width="3"/>
<path d="M130.937 45.526C130.937 44.276 131.952 43.2627 133.203 43.2627C134.454 43.2627 135.468 44.276 135.468 45.526V52.6366C135.468 53.8867 134.454 54.9 133.203 54.9C131.952 54.9 130.937 53.8867 130.937 52.6366V45.526Z" fill="#27374D" stroke="black" stroke-width="3"/>
<path d="M70.8318 1.61475H115.59C125.446 1.61475 133.435 9.59655 133.435 19.4426V132.557C133.435 142.403 125.446 150.385 115.59 150.385H70.8318C60.9767 150.385 52.9876 142.403 52.9876 132.557V19.4426C52.9876 9.59655 60.9767 1.61475 70.8318 1.61475Z" fill="#27374D" stroke="black" stroke-width="3"/>
<path d="M59.5921 16.9143C59.5921 12.6697 63.0361 9.22888 67.2845 9.22888C71.5329 9.22888 74.9769 12.6697 74.9769 16.9143V32.4898C74.9769 36.7343 71.5329 40.1752 67.2845 40.1752C63.0361 40.1752 59.5921 36.7343 59.5921 32.4898V16.9143Z" fill="black" stroke="#EFEAD8" stroke-width="0.5"/>
<path d="M62.8786 17.4222C62.8786 14.8976 64.927 12.8511 67.4539 12.8511C69.9807 12.8511 72.0292 14.8976 72.0292 17.4222C72.0292 19.9467 69.9807 21.9933 67.4539 21.9933C64.927 21.9933 62.8786 19.9467 62.8786 17.4222Z" fill="#EFEAD8"/>
<path d="M64.2343 33.167C64.2343 31.484 65.5999 30.1196 67.2845 30.1196C68.9691 30.1196 70.3347 31.484 70.3347 33.167C70.3347 34.8501 68.9691 36.2144 67.2845 36.2144C65.5999 36.2144 64.2343 34.8501 64.2343 33.167Z" fill="#EFEAD8"/>
</g>
<defs>
<filter id="filter0_d_917_1255" x="49.1154" y="0.114746" width="96.8528" height="165.771" filterUnits="userSpaceOnUse" color-interpolation-filters="sRGB">
<feFlood flood-opacity="0" result="BackgroundImageFix"/>
<feColorMatrix in="SourceAlpha" type="matrix" values="0 0 0 0 0 0 0 0 0 0 0 0 0 0 0 0 0 0 127 0" result="hardAlpha"/>
<feOffset dx="5" dy="10"/>
<feGaussianBlur stdDeviation="2"/>
<feComposite in2="hardAlpha" operator="out"/>
<feColorMatrix type="matrix" values="0 0 0 0 0 0 0 0 0 0 0 0 0 0 0 0 0 0 0.25 0"/>
<feBlend mode="normal" in2="BackgroundImageFix" result="effect1_dropShadow_917_1255"/>
<feBlend mode="normal" in="SourceGraphic" in2="effect1_dropShadow_917_1255" result="shape"/>
</filter>
</defs>
</svg>
