<svg width="78" height="78" viewBox="0 0 78 78" fill="none" xmlns="http://www.w3.org/2000/svg">
<rect width="78" height="78" fill="#F5F5F5"/>
<g clip-path="url(#clip0_0_1)">
<rect width="390" height="844" transform="translate(-147 -146)" fill="white"/>
<circle cx="39" cy="39" r="39" fill="#27374D"/>
<mask id="mask0_0_1" style="mask-type:alpha" maskUnits="userSpaceOnUse" x="0" y="0" width="78" height="78">
<circle cx="39" cy="39" r="39" fill="#CEF4F1"/>
</mask>
<g mask="url(#mask0_0_1)">
<path fill-rule="evenodd" clip-rule="evenodd" d="M39.0001 41.7857C45.1542 41.7857 50.143 36.7969 50.143 30.6429C50.143 24.4888 45.1542 19.5 39.0001 19.5C32.8461 19.5 27.8573 24.4888 27.8573 30.6429C27.8573 36.7969 32.8461 41.7857 39.0001 41.7857ZM39.0001 112.821C56.693 112.821 71.0358 98.4785 71.0358 80.7857C71.0358 63.0929 56.693 48.75 39.0001 48.75C21.3073 48.75 6.96441 63.0929 6.96441 80.7857C6.96441 98.4785 21.3073 112.821 39.0001 112.821Z" fill="#E7E7E7"/>
</g>
</g>
<defs>
<clipPath id="clip0_0_1">
<rect width="390" height="844" fill="white" transform="translate(-147 -146)"/>
</clipPath>
</defs>
</svg>
