<svg width="142" height="206" viewBox="0 0 142 206" fill="none" xmlns="http://www.w3.org/2000/svg">
<g filter="url(#filter0_d_917_1256)">
<path d="M29.6154 30.9661C29.6154 29.7161 30.6297 28.7028 31.8808 28.7028C33.132 28.7028 34.1462 29.7161 34.1462 30.9661V49.5891C34.1462 50.8391 33.132 51.8525 31.8808 51.8525C30.6297 51.8525 29.6154 50.8391 29.6154 49.5891V30.9661Z" fill="#27374D" stroke="black" stroke-width="3"/>
<path d="M109.937 32.6591C109.937 31.4091 110.952 30.3958 112.203 30.3958C113.454 30.3958 114.468 31.4091 114.468 32.6591V39.7697C114.468 41.0197 113.454 42.033 112.203 42.033C110.952 42.033 109.937 41.0197 109.937 39.7697V32.6591Z" fill="#27374D" stroke="black" stroke-width="3"/>
<path d="M109.937 45.526C109.937 44.276 110.952 43.2627 112.203 43.2627C113.454 43.2627 114.468 44.276 114.468 45.526V52.6366C114.468 53.8867 113.454 54.9 112.203 54.9C110.952 54.9 109.937 53.8867 109.937 52.6366V45.526Z" fill="#27374D" stroke="black" stroke-width="3"/>
<path d="M49.8318 1.61475H94.5905C104.446 1.61475 112.435 9.59655 112.435 19.4426V132.557C112.435 142.403 104.446 150.385 94.5905 150.385H49.8318C39.9767 150.385 31.9876 142.403 31.9876 132.557V19.4426C31.9876 9.59655 39.9767 1.61475 49.8318 1.61475Z" fill="#27374D" stroke="black" stroke-width="3"/>
<path d="M38.5921 16.9143C38.5921 12.6697 42.0361 9.22888 46.2845 9.22888C50.5329 9.22888 53.9769 12.6697 53.9769 16.9143V32.4898C53.9769 36.7343 50.5329 40.1752 46.2845 40.1752C42.0361 40.1752 38.5921 36.7343 38.5921 32.4898V16.9143Z" fill="black" stroke="#EFEAD8" stroke-width="0.5"/>
<path d="M41.8786 17.4222C41.8786 14.8976 43.927 12.8511 46.4539 12.8511C48.9807 12.8511 51.0292 14.8976 51.0292 17.4222C51.0292 19.9467 48.9807 21.9933 46.4539 21.9933C43.927 21.9933 41.8786 19.9467 41.8786 17.4222Z" fill="#EFEAD8"/>
<path d="M43.2343 33.167C43.2343 31.484 44.5999 30.1196 46.2845 30.1196C47.9691 30.1196 49.3347 31.484 49.3347 33.167C49.3347 34.8501 47.9691 36.2144 46.2845 36.2144C44.5999 36.2144 43.2343 34.8501 43.2343 33.167Z" fill="#EFEAD8"/>
</g>
<path d="M21.7784 178.408H23.1064V180.76H21.7784V178.408ZM27.8584 169.784H29.1864V184.248H27.8584V169.784ZM28.7544 175.928H31.4264V177.048H28.7544V175.928ZM18.0504 181.496L17.8584 180.392C20.4504 180.392 23.9864 180.36 26.9784 179.928L27.0904 180.92C23.9704 181.48 20.5784 181.496 18.0504 181.496ZM18.0984 171.528H26.7544V172.6H18.0984V171.528ZM22.4344 173.448C24.4504 173.448 25.8424 174.504 25.8424 176.12C25.8424 177.752 24.4504 178.792 22.4344 178.792C20.4184 178.792 19.0424 177.752 19.0424 176.12C19.0424 174.504 20.4184 173.448 22.4344 173.448ZM22.4344 174.472C21.1384 174.472 20.2904 175.128 20.2904 176.12C20.2904 177.112 21.1384 177.768 22.4344 177.768C23.7304 177.768 24.5944 177.112 24.5944 176.12C24.5944 175.128 23.7304 174.472 22.4344 174.472ZM21.7784 169.8H23.1064V172.248H21.7784V169.8ZM39.6811 172.328H43.7291V173.416H39.6811V172.328ZM39.6811 175.416H43.7611V176.52H39.6811V175.416ZM33.4091 171.032H40.0171V177.816H33.4091V171.032ZM38.7051 172.104H34.7051V176.744H38.7051V172.104ZM43.3131 169.8H44.6411V180.36H43.3131V169.8ZM35.3451 182.84H44.9931V183.928H35.3451V182.84ZM35.3451 179.4H36.6731V183.336H35.3451V179.4ZM53.9999 170.024C57.1839 170.024 59.0879 170.92 59.0879 172.536C59.0879 174.152 57.1839 175.048 53.9999 175.048C50.7999 175.048 48.9119 174.152 48.9119 172.536C48.9119 170.92 50.7999 170.024 53.9999 170.024ZM53.9999 171.032C51.6319 171.032 50.2719 171.576 50.2719 172.536C50.2719 173.496 51.6319 174.04 53.9999 174.04C56.3519 174.04 57.7119 173.496 57.7119 172.536C57.7119 171.576 56.3519 171.032 53.9999 171.032ZM47.4559 176.008H60.5279V177.08H47.4559V176.008ZM49.0399 178.312H58.8639V181.576H50.3839V183.336H49.0719V180.616H57.5519V179.336H49.0399V178.312ZM49.0719 183.048H59.2959V184.088H49.0719V183.048ZM70.7866 177.944H72.1306V183.8H70.7866V177.944ZM77.2186 169.784H78.5306V184.264H77.2186V169.784ZM66.7866 178.776L66.6106 177.656C69.4746 177.656 73.0426 177.64 76.2106 177.272L76.2906 178.264C73.0426 178.744 69.5866 178.792 66.7866 178.776ZM67.9706 174.744H75.1226V175.832H67.9706V174.744ZM67.9706 170.584H74.9466V171.672H69.2986V175.352H67.9706V170.584ZM85.2494 171.032H86.3534V172.136C86.3534 174.68 84.6894 176.824 82.2574 177.656L81.5854 176.6C83.7614 175.896 85.2494 174.104 85.2494 172.136V171.032ZM85.5054 171.032H86.6094V172.136C86.6094 174.008 88.1294 175.688 90.2574 176.36L89.6014 177.4C87.2014 176.616 85.5054 174.584 85.5054 172.136V171.032ZM81.9534 170.728H89.8734V171.8H81.9534V170.728ZM91.9214 169.784H93.2654V177.608H91.9214V169.784ZM83.9374 178.328H85.2494V180.04H91.9534V178.328H93.2654V184.056H83.9374V178.328ZM85.2494 181.112V182.968H91.9534V181.112H85.2494ZM102.656 170.696C105.664 170.696 107.904 172.296 107.904 174.696C107.904 177.112 105.664 178.696 102.656 178.696C99.6481 178.696 97.3921 177.112 97.3921 174.696C97.3921 172.296 99.6481 170.696 102.656 170.696ZM102.656 171.784C100.368 171.784 98.6721 172.952 98.6721 174.696C98.6721 176.424 100.368 177.608 102.656 177.608C104.944 177.608 106.64 176.424 106.64 174.696C106.64 172.952 104.944 171.784 102.656 171.784ZM96.1281 181.224H109.232V182.344H96.1281V181.224ZM117.775 172.328H121.823V173.416H117.775V172.328ZM117.775 175.416H121.855V176.52H117.775V175.416ZM111.503 171.032H118.111V177.816H111.503V171.032ZM116.799 172.104H112.799V176.744H116.799V172.104ZM121.407 169.8H122.735V180.36H121.407V169.8ZM113.439 182.84H123.087V183.928H113.439V182.84ZM113.439 179.4H114.767V183.336H113.439V179.4ZM1.7205 198.672H2.8565C5.5285 198.672 7.3685 198.608 9.5445 198.224L9.6885 199.312C7.4485 199.696 5.5605 199.776 2.8565 199.776H1.7205V198.672ZM1.7205 190.096H8.4565V191.2H3.0485V199.056H1.7205V190.096ZM2.7125 194.144H8.1365V195.216H2.7125V194.144ZM10.8885 188.784H12.2325V203.248H10.8885V188.784ZM11.9125 194.592H14.6005V195.712H11.9125V194.592ZM26.3273 188.768H27.6553V203.264H26.3273V188.768ZM20.0233 189.888C22.1673 189.888 23.7033 191.856 23.7033 194.928C23.7033 198.016 22.1673 199.984 20.0233 199.984C17.8953 199.984 16.3593 198.016 16.3593 194.928C16.3593 191.856 17.8953 189.888 20.0233 189.888ZM20.0233 191.088C18.6153 191.088 17.6233 192.592 17.6233 194.928C17.6233 197.28 18.6153 198.816 20.0233 198.816C21.4473 198.816 22.4233 197.28 22.4233 194.928C22.4233 192.592 21.4473 191.088 20.0233 191.088ZM31.126 190.192H37.702V199.6H31.126V190.192ZM36.39 191.264H32.422V198.528H36.39V191.264ZM41.142 188.768H42.454V203.264H41.142V188.768ZM37.446 194.048H41.638V195.152H37.446V194.048ZM55.0448 188.768H56.3888V203.248H55.0448V188.768ZM56.0208 194.64H58.6928V195.744H56.0208V194.64ZM51.3488 190.336H52.6448C52.6448 194.448 50.7568 198.16 46.0848 200.512L45.3488 199.488C49.3488 197.456 51.3488 194.368 51.3488 190.544V190.336ZM46.0208 190.336H52.0368V191.424H46.0208V190.336ZM68.2955 190.032H69.3835V192.624C69.3835 195.952 67.5915 199.04 65.2235 200.24L64.4075 199.152C66.5515 198.128 68.2955 195.36 68.2955 192.624V190.032ZM68.5195 190.032H69.6075V192.624C69.6075 195.264 71.3355 197.92 73.4795 198.912L72.6795 199.968C70.3275 198.816 68.5195 195.84 68.5195 192.624V190.032ZM74.9835 188.768H76.3115V203.264H74.9835V188.768ZM82.7583 190.272H83.8463V191.44C83.8463 194.096 82.2463 196.304 79.8303 197.168L79.1263 196.128C81.3183 195.36 82.7583 193.504 82.7583 191.44V190.272ZM82.9983 190.272H84.0863V191.424C84.0863 193.344 85.4783 195.12 87.6063 195.84L86.9183 196.88C84.5343 196.048 82.9983 193.92 82.9983 191.424V190.272ZM79.5423 189.792H87.2703V190.88H79.5423V189.792ZM89.0943 188.784H90.4223V197.488H89.0943V188.784ZM90.0543 192.592H92.5663V193.696H90.0543V192.592ZM81.0303 198.256H90.4223V203.248H89.0943V199.36H81.0303V198.256ZM98.037 193.68H99.381V196.08H98.037V193.68ZM104.453 188.784H105.781V197.12H104.453V188.784ZM94.165 196.768L93.973 195.696C96.613 195.696 100.213 195.664 103.269 195.216L103.365 196.16C100.213 196.72 96.741 196.768 94.165 196.768ZM95.269 193.008H102.213V194.08H95.269V193.008ZM95.269 189.504H102.085V190.592H96.597V193.424H95.269V189.504ZM96.293 197.76H97.621V199.28H104.469V197.76H105.781V203.056H96.293V197.76ZM97.621 200.32V201.984H104.469V200.32H97.621ZM119.156 188.784H120.484V203.248H119.156V188.784ZM109.556 190.192H110.868V199.152H109.556V190.192ZM109.556 198.368H110.74C112.932 198.368 115.22 198.208 117.668 197.696L117.828 198.832C115.316 199.344 113.028 199.52 110.74 199.52H109.556V198.368ZM133.139 188.768H134.483V203.264H133.139V188.768ZM134.163 194.48H136.851V195.6H134.163V194.48ZM123.971 198.544H125.107C127.779 198.544 129.651 198.448 131.811 198.048L131.955 199.168C129.731 199.584 127.827 199.664 125.107 199.664H123.971V198.544ZM123.971 190.176H130.691V191.264H125.283V199.04H123.971V190.176ZM139.486 202.091C139.205 202.091 138.965 201.991 138.764 201.79C138.563 201.589 138.463 201.348 138.463 201.068C138.463 200.788 138.563 200.547 138.764 200.347C138.965 200.146 139.205 200.045 139.486 200.045C139.766 200.045 140.007 200.146 140.207 200.347C140.408 200.547 140.509 200.788 140.509 201.068C140.509 201.254 140.461 201.424 140.366 201.58C140.276 201.735 140.152 201.86 139.997 201.955C139.846 202.045 139.675 202.091 139.486 202.091Z" fill="#27374D"/>
<defs>
<filter id="filter0_d_917_1256" x="28.1154" y="0.114746" width="96.8528" height="165.771" filterUnits="userSpaceOnUse" color-interpolation-filters="sRGB">
<feFlood flood-opacity="0" result="BackgroundImageFix"/>
<feColorMatrix in="SourceAlpha" type="matrix" values="0 0 0 0 0 0 0 0 0 0 0 0 0 0 0 0 0 0 127 0" result="hardAlpha"/>
<feOffset dx="5" dy="10"/>
<feGaussianBlur stdDeviation="2"/>
<feComposite in2="hardAlpha" operator="out"/>
<feColorMatrix type="matrix" values="0 0 0 0 0 0 0 0 0 0 0 0 0 0 0 0 0 0 0.25 0"/>
<feBlend mode="normal" in2="BackgroundImageFix" result="effect1_dropShadow_917_1256"/>
<feBlend mode="normal" in="SourceGraphic" in2="effect1_dropShadow_917_1256" result="shape"/>
</filter>
</defs>
</svg>
