<svg width="142" height="207" viewBox="0 0 142 207" fill="none" xmlns="http://www.w3.org/2000/svg">
<path d="M21.7784 179.408H23.1064V181.76H21.7784V179.408ZM27.8584 170.784H29.1864V185.248H27.8584V170.784ZM28.7544 176.928H31.4264V178.048H28.7544V176.928ZM18.0504 182.496L17.8584 181.392C20.4504 181.392 23.9864 181.36 26.9784 180.928L27.0904 181.92C23.9704 182.48 20.5784 182.496 18.0504 182.496ZM18.0984 172.528H26.7544V173.6H18.0984V172.528ZM22.4344 174.448C24.4504 174.448 25.8424 175.504 25.8424 177.12C25.8424 178.752 24.4504 179.792 22.4344 179.792C20.4184 179.792 19.0424 178.752 19.0424 177.12C19.0424 175.504 20.4184 174.448 22.4344 174.448ZM22.4344 175.472C21.1384 175.472 20.2904 176.128 20.2904 177.12C20.2904 178.112 21.1384 178.768 22.4344 178.768C23.7304 178.768 24.5944 178.112 24.5944 177.12C24.5944 176.128 23.7304 175.472 22.4344 175.472ZM21.7784 170.8H23.1064V173.248H21.7784V170.8ZM39.6811 173.328H43.7291V174.416H39.6811V173.328ZM39.6811 176.416H43.7611V177.52H39.6811V176.416ZM33.4091 172.032H40.0171V178.816H33.4091V172.032ZM38.7051 173.104H34.7051V177.744H38.7051V173.104ZM43.3131 170.8H44.6411V181.36H43.3131V170.8ZM35.3451 183.84H44.9931V184.928H35.3451V183.84ZM35.3451 180.4H36.6731V184.336H35.3451V180.4ZM53.9999 171.024C57.1839 171.024 59.0879 171.92 59.0879 173.536C59.0879 175.152 57.1839 176.048 53.9999 176.048C50.7999 176.048 48.9119 175.152 48.9119 173.536C48.9119 171.92 50.7999 171.024 53.9999 171.024ZM53.9999 172.032C51.6319 172.032 50.2719 172.576 50.2719 173.536C50.2719 174.496 51.6319 175.04 53.9999 175.04C56.3519 175.04 57.7119 174.496 57.7119 173.536C57.7119 172.576 56.3519 172.032 53.9999 172.032ZM47.4559 177.008H60.5279V178.08H47.4559V177.008ZM49.0399 179.312H58.8639V182.576H50.3839V184.336H49.0719V181.616H57.5519V180.336H49.0399V179.312ZM49.0719 184.048H59.2959V185.088H49.0719V184.048ZM70.7866 178.944H72.1306V184.8H70.7866V178.944ZM77.2186 170.784H78.5306V185.264H77.2186V170.784ZM66.7866 179.776L66.6106 178.656C69.4746 178.656 73.0426 178.64 76.2106 178.272L76.2906 179.264C73.0426 179.744 69.5866 179.792 66.7866 179.776ZM67.9706 175.744H75.1226V176.832H67.9706V175.744ZM67.9706 171.584H74.9466V172.672H69.2986V176.352H67.9706V171.584ZM85.2494 172.032H86.3534V173.136C86.3534 175.68 84.6894 177.824 82.2574 178.656L81.5854 177.6C83.7614 176.896 85.2494 175.104 85.2494 173.136V172.032ZM85.5054 172.032H86.6094V173.136C86.6094 175.008 88.1294 176.688 90.2574 177.36L89.6014 178.4C87.2014 177.616 85.5054 175.584 85.5054 173.136V172.032ZM81.9534 171.728H89.8734V172.8H81.9534V171.728ZM91.9214 170.784H93.2654V178.608H91.9214V170.784ZM83.9374 179.328H85.2494V181.04H91.9534V179.328H93.2654V185.056H83.9374V179.328ZM85.2494 182.112V183.968H91.9534V182.112H85.2494ZM102.656 171.696C105.664 171.696 107.904 173.296 107.904 175.696C107.904 178.112 105.664 179.696 102.656 179.696C99.6481 179.696 97.3921 178.112 97.3921 175.696C97.3921 173.296 99.6481 171.696 102.656 171.696ZM102.656 172.784C100.368 172.784 98.6721 173.952 98.6721 175.696C98.6721 177.424 100.368 178.608 102.656 178.608C104.944 178.608 106.64 177.424 106.64 175.696C106.64 173.952 104.944 172.784 102.656 172.784ZM96.1281 182.224H109.232V183.344H96.1281V182.224ZM117.775 173.328H121.823V174.416H117.775V173.328ZM117.775 176.416H121.855V177.52H117.775V176.416ZM111.503 172.032H118.111V178.816H111.503V172.032ZM116.799 173.104H112.799V177.744H116.799V173.104ZM121.407 170.8H122.735V181.36H121.407V170.8ZM113.439 183.84H123.087V184.928H113.439V183.84ZM113.439 180.4H114.767V184.336H113.439V180.4ZM1.7205 199.672H2.8565C5.5285 199.672 7.3685 199.608 9.5445 199.224L9.6885 200.312C7.4485 200.696 5.5605 200.776 2.8565 200.776H1.7205V199.672ZM1.7205 191.096H8.4565V192.2H3.0485V200.056H1.7205V191.096ZM2.7125 195.144H8.1365V196.216H2.7125V195.144ZM10.8885 189.784H12.2325V204.248H10.8885V189.784ZM11.9125 195.592H14.6005V196.712H11.9125V195.592ZM26.3273 189.768H27.6553V204.264H26.3273V189.768ZM20.0233 190.888C22.1673 190.888 23.7033 192.856 23.7033 195.928C23.7033 199.016 22.1673 200.984 20.0233 200.984C17.8953 200.984 16.3593 199.016 16.3593 195.928C16.3593 192.856 17.8953 190.888 20.0233 190.888ZM20.0233 192.088C18.6153 192.088 17.6233 193.592 17.6233 195.928C17.6233 198.28 18.6153 199.816 20.0233 199.816C21.4473 199.816 22.4233 198.28 22.4233 195.928C22.4233 193.592 21.4473 192.088 20.0233 192.088ZM31.126 191.192H37.702V200.6H31.126V191.192ZM36.39 192.264H32.422V199.528H36.39V192.264ZM41.142 189.768H42.454V204.264H41.142V189.768ZM37.446 195.048H41.638V196.152H37.446V195.048ZM55.0448 189.768H56.3888V204.248H55.0448V189.768ZM56.0208 195.64H58.6928V196.744H56.0208V195.64ZM51.3488 191.336H52.6448C52.6448 195.448 50.7568 199.16 46.0848 201.512L45.3488 200.488C49.3488 198.456 51.3488 195.368 51.3488 191.544V191.336ZM46.0208 191.336H52.0368V192.424H46.0208V191.336ZM68.2955 191.032H69.3835V193.624C69.3835 196.952 67.5915 200.04 65.2235 201.24L64.4075 200.152C66.5515 199.128 68.2955 196.36 68.2955 193.624V191.032ZM68.5195 191.032H69.6075V193.624C69.6075 196.264 71.3355 198.92 73.4795 199.912L72.6795 200.968C70.3275 199.816 68.5195 196.84 68.5195 193.624V191.032ZM74.9835 189.768H76.3115V204.264H74.9835V189.768ZM82.7583 191.272H83.8463V192.44C83.8463 195.096 82.2463 197.304 79.8303 198.168L79.1263 197.128C81.3183 196.36 82.7583 194.504 82.7583 192.44V191.272ZM82.9983 191.272H84.0863V192.424C84.0863 194.344 85.4783 196.12 87.6063 196.84L86.9183 197.88C84.5343 197.048 82.9983 194.92 82.9983 192.424V191.272ZM79.5423 190.792H87.2703V191.88H79.5423V190.792ZM89.0943 189.784H90.4223V198.488H89.0943V189.784ZM90.0543 193.592H92.5663V194.696H90.0543V193.592ZM81.0303 199.256H90.4223V204.248H89.0943V200.36H81.0303V199.256ZM98.037 194.68H99.381V197.08H98.037V194.68ZM104.453 189.784H105.781V198.12H104.453V189.784ZM94.165 197.768L93.973 196.696C96.613 196.696 100.213 196.664 103.269 196.216L103.365 197.16C100.213 197.72 96.741 197.768 94.165 197.768ZM95.269 194.008H102.213V195.08H95.269V194.008ZM95.269 190.504H102.085V191.592H96.597V194.424H95.269V190.504ZM96.293 198.76H97.621V200.28H104.469V198.76H105.781V204.056H96.293V198.76ZM97.621 201.32V202.984H104.469V201.32H97.621ZM119.156 189.784H120.484V204.248H119.156V189.784ZM109.556 191.192H110.868V200.152H109.556V191.192ZM109.556 199.368H110.74C112.932 199.368 115.22 199.208 117.668 198.696L117.828 199.832C115.316 200.344 113.028 200.52 110.74 200.52H109.556V199.368ZM133.139 189.768H134.483V204.264H133.139V189.768ZM134.163 195.48H136.851V196.6H134.163V195.48ZM123.971 199.544H125.107C127.779 199.544 129.651 199.448 131.811 199.048L131.955 200.168C129.731 200.584 127.827 200.664 125.107 200.664H123.971V199.544ZM123.971 191.176H130.691V192.264H125.283V200.04H123.971V191.176ZM139.486 203.091C139.205 203.091 138.965 202.991 138.764 202.79C138.563 202.589 138.463 202.348 138.463 202.068C138.463 201.788 138.563 201.547 138.764 201.347C138.965 201.146 139.205 201.045 139.486 201.045C139.766 201.045 140.007 201.146 140.207 201.347C140.408 201.547 140.509 201.788 140.509 202.068C140.509 202.254 140.461 202.424 140.366 202.58C140.276 202.735 140.152 202.86 139.997 202.955C139.846 203.045 139.675 203.091 139.486 203.091Z" fill="#EFEAD8"/>
<g filter="url(#filter0_d_917_1257)">
<path d="M29.6154 30.9661C29.6154 29.7161 30.6297 28.7028 31.8808 28.7028C33.132 28.7028 34.1462 29.7161 34.1462 30.9661V49.5891C34.1462 50.8391 33.132 51.8525 31.8808 51.8525C30.6297 51.8525 29.6154 50.8391 29.6154 49.5891V30.9661Z" fill="#27374D" stroke="black" stroke-width="3"/>
<path d="M109.937 32.6591C109.937 31.4091 110.952 30.3958 112.203 30.3958C113.454 30.3958 114.468 31.4091 114.468 32.6591V39.7697C114.468 41.0197 113.454 42.033 112.203 42.033C110.952 42.033 109.937 41.0197 109.937 39.7697V32.6591Z" fill="#27374D" stroke="black" stroke-width="3"/>
<path d="M109.937 45.526C109.937 44.276 110.952 43.2627 112.203 43.2627C113.454 43.2627 114.468 44.276 114.468 45.526V52.6366C114.468 53.8867 113.454 54.9 112.203 54.9C110.952 54.9 109.937 53.8867 109.937 52.6366V45.526Z" fill="#27374D" stroke="black" stroke-width="3"/>
<path d="M49.8318 1.61475H94.5905C104.446 1.61475 112.435 9.59655 112.435 19.4426V132.557C112.435 142.403 104.446 150.385 94.5905 150.385H49.8318C39.9767 150.385 31.9876 142.403 31.9876 132.557V19.4426C31.9876 9.59655 39.9767 1.61475 49.8318 1.61475Z" fill="#27374D" stroke="black" stroke-width="3"/>
<path d="M38.5921 16.9143C38.5921 12.6697 42.0361 9.22888 46.2845 9.22888C50.5329 9.22888 53.9769 12.6697 53.9769 16.9143V32.4898C53.9769 36.7343 50.5329 40.1752 46.2845 40.1752C42.0361 40.1752 38.5921 36.7343 38.5921 32.4898V16.9143Z" fill="black" stroke="#EFEAD8" stroke-width="0.5"/>
<path d="M41.8786 17.4222C41.8786 14.8976 43.927 12.8511 46.4539 12.8511C48.9807 12.8511 51.0292 14.8976 51.0292 17.4222C51.0292 19.9467 48.9807 21.9933 46.4539 21.9933C43.927 21.9933 41.8786 19.9467 41.8786 17.4222Z" fill="#EFEAD8"/>
<path d="M43.2343 33.167C43.2343 31.484 44.5999 30.1196 46.2845 30.1196C47.9691 30.1196 49.3347 31.484 49.3347 33.167C49.3347 34.8501 47.9691 36.2144 46.2845 36.2144C44.5999 36.2144 43.2343 34.8501 43.2343 33.167Z" fill="#EFEAD8"/>
</g>
<defs>
<filter id="filter0_d_917_1257" x="28.1154" y="0.114746" width="96.8528" height="165.771" filterUnits="userSpaceOnUse" color-interpolation-filters="sRGB">
<feFlood flood-opacity="0" result="BackgroundImageFix"/>
<feColorMatrix in="SourceAlpha" type="matrix" values="0 0 0 0 0 0 0 0 0 0 0 0 0 0 0 0 0 0 127 0" result="hardAlpha"/>
<feOffset dx="5" dy="10"/>
<feGaussianBlur stdDeviation="2"/>
<feComposite in2="hardAlpha" operator="out"/>
<feColorMatrix type="matrix" values="0 0 0 0 0 0 0 0 0 0 0 0 0 0 0 0 0 0 0.25 0"/>
<feBlend mode="normal" in2="BackgroundImageFix" result="effect1_dropShadow_917_1257"/>
<feBlend mode="normal" in="SourceGraphic" in2="effect1_dropShadow_917_1257" result="shape"/>
</filter>
</defs>
</svg>
