<svg width="149" height="207" viewBox="0 0 149 207" fill="none" xmlns="http://www.w3.org/2000/svg">
<path d="M1.59659 184V172.364H8.57386V173.614H3.00568V177.545H8.05114V178.795H3.00568V184H1.59659ZM12.1463 172.364V184H10.8054V172.364H12.1463ZM14.6023 184V175.273H15.9432V184H14.6023ZM15.2841 173.818C15.0227 173.818 14.7973 173.729 14.608 173.551C14.4223 173.373 14.3295 173.159 14.3295 172.909C14.3295 172.659 14.4223 172.445 14.608 172.267C14.7973 172.089 15.0227 172 15.2841 172C15.5455 172 15.7689 172.089 15.9545 172.267C16.1439 172.445 16.2386 172.659 16.2386 172.909C16.2386 173.159 16.1439 173.373 15.9545 173.551C15.7689 173.729 15.5455 173.818 15.2841 173.818ZM18.3991 187.273V175.273H19.6946V176.659H19.8537C19.9522 176.508 20.0885 176.314 20.2628 176.08C20.4408 175.841 20.6946 175.629 21.0241 175.443C21.3575 175.254 21.8082 175.159 22.3764 175.159C23.1113 175.159 23.759 175.343 24.3196 175.71C24.8802 176.078 25.3177 176.598 25.6321 177.273C25.9465 177.947 26.1037 178.742 26.1037 179.659C26.1037 180.583 25.9465 181.384 25.6321 182.062C25.3177 182.737 24.8821 183.259 24.3253 183.631C23.7685 183.998 23.1264 184.182 22.3991 184.182C21.8385 184.182 21.3897 184.089 21.0526 183.903C20.7154 183.714 20.456 183.5 20.2741 183.261C20.0923 183.019 19.9522 182.818 19.8537 182.659H19.7401V187.273H18.3991ZM19.7173 179.636C19.7173 180.295 19.8139 180.877 20.0071 181.381C20.2003 181.881 20.4825 182.273 20.8537 182.557C21.2249 182.837 21.6795 182.977 22.2173 182.977C22.7779 182.977 23.2457 182.83 23.6207 182.534C23.9995 182.235 24.2836 181.833 24.473 181.33C24.6662 180.822 24.7628 180.258 24.7628 179.636C24.7628 179.023 24.6681 178.47 24.4787 177.977C24.2931 177.481 24.0109 177.089 23.6321 176.801C23.2571 176.509 22.7855 176.364 22.2173 176.364C21.6719 176.364 21.2135 176.502 20.8423 176.778C20.4711 177.051 20.1908 177.434 20.0014 177.926C19.812 178.415 19.7173 178.985 19.7173 179.636ZM28.1491 187.273V175.273H29.4446V176.659H29.6037C29.7022 176.508 29.8385 176.314 30.0128 176.08C30.1908 175.841 30.4446 175.629 30.7741 175.443C31.1075 175.254 31.5582 175.159 32.1264 175.159C32.8613 175.159 33.509 175.343 34.0696 175.71C34.6302 176.078 35.0677 176.598 35.3821 177.273C35.6965 177.947 35.8537 178.742 35.8537 179.659C35.8537 180.583 35.6965 181.384 35.3821 182.062C35.0677 182.737 34.6321 183.259 34.0753 183.631C33.5185 183.998 32.8764 184.182 32.1491 184.182C31.5885 184.182 31.1397 184.089 30.8026 183.903C30.4654 183.714 30.206 183.5 30.0241 183.261C29.8423 183.019 29.7022 182.818 29.6037 182.659H29.4901V187.273H28.1491ZM29.4673 179.636C29.4673 180.295 29.5639 180.877 29.7571 181.381C29.9503 181.881 30.2325 182.273 30.6037 182.557C30.9749 182.837 31.4295 182.977 31.9673 182.977C32.5279 182.977 32.9957 182.83 33.3707 182.534C33.7495 182.235 34.0336 181.833 34.223 181.33C34.4162 180.822 34.5128 180.258 34.5128 179.636C34.5128 179.023 34.4181 178.47 34.2287 177.977C34.0431 177.481 33.7609 177.089 33.3821 176.801C33.0071 176.509 32.5355 176.364 31.9673 176.364C31.4219 176.364 30.9635 176.502 30.5923 176.778C30.2211 177.051 29.9408 177.434 29.7514 177.926C29.562 178.415 29.4673 178.985 29.4673 179.636ZM37.8991 184V175.273H39.2401V184H37.8991ZM38.581 173.818C38.3196 173.818 38.0942 173.729 37.9048 173.551C37.7192 173.373 37.6264 173.159 37.6264 172.909C37.6264 172.659 37.7192 172.445 37.9048 172.267C38.0942 172.089 38.3196 172 38.581 172C38.8423 172 39.0658 172.089 39.2514 172.267C39.4408 172.445 39.5355 172.659 39.5355 172.909C39.5355 173.159 39.4408 173.373 39.2514 173.551C39.0658 173.729 38.8423 173.818 38.581 173.818ZM43.0369 178.75V184H41.696V175.273H42.9915V176.636H43.1051C43.3097 176.193 43.6203 175.837 44.0369 175.568C44.4536 175.295 44.9915 175.159 45.6506 175.159C46.2415 175.159 46.7585 175.28 47.2017 175.523C47.6449 175.761 47.9896 176.125 48.2358 176.614C48.482 177.098 48.6051 177.712 48.6051 178.455V184H47.2642V178.545C47.2642 177.86 47.0862 177.326 46.7301 176.943C46.3741 176.557 45.8854 176.364 45.2642 176.364C44.8362 176.364 44.4536 176.456 44.1165 176.642C43.7831 176.828 43.5199 177.098 43.3267 177.455C43.1335 177.811 43.0369 178.242 43.0369 178.75ZM54.5781 187.455C53.9304 187.455 53.3736 187.371 52.9077 187.205C52.4418 187.042 52.0535 186.826 51.7429 186.557C51.4361 186.292 51.1918 186.008 51.0099 185.705L52.0781 184.955C52.1993 185.114 52.3527 185.295 52.5384 185.5C52.724 185.708 52.9777 185.888 53.2997 186.04C53.6255 186.195 54.0516 186.273 54.5781 186.273C55.2827 186.273 55.8641 186.102 56.3224 185.761C56.7808 185.42 57.0099 184.886 57.0099 184.159V182.386H56.8963C56.7978 182.545 56.6577 182.742 56.4759 182.977C56.2978 183.208 56.0402 183.415 55.7031 183.597C55.3698 183.775 54.919 183.864 54.3509 183.864C53.6463 183.864 53.0137 183.697 52.4531 183.364C51.8963 183.03 51.455 182.545 51.1293 181.909C50.8073 181.273 50.6463 180.5 50.6463 179.591C50.6463 178.697 50.8035 177.919 51.1179 177.256C51.4323 176.589 51.8698 176.074 52.4304 175.71C52.991 175.343 53.6387 175.159 54.3736 175.159C54.9418 175.159 55.3925 175.254 55.7259 175.443C56.063 175.629 56.3205 175.841 56.4986 176.08C56.6804 176.314 56.8205 176.508 56.919 176.659H57.0554V175.273H58.3509V184.25C58.3509 185 58.1804 185.61 57.8395 186.08C57.5024 186.553 57.0478 186.9 56.4759 187.119C55.9077 187.343 55.2751 187.455 54.5781 187.455ZM54.5327 182.659C55.0705 182.659 55.5251 182.536 55.8963 182.29C56.2675 182.044 56.5497 181.689 56.7429 181.227C56.9361 180.765 57.0327 180.212 57.0327 179.568C57.0327 178.939 56.938 178.384 56.7486 177.903C56.5592 177.422 56.2789 177.045 55.9077 176.773C55.5365 176.5 55.0781 176.364 54.5327 176.364C53.9645 176.364 53.491 176.508 53.1122 176.795C52.7372 177.083 52.455 177.47 52.2656 177.955C52.08 178.439 51.9872 178.977 51.9872 179.568C51.9872 180.174 52.0819 180.71 52.2713 181.176C52.4645 181.638 52.7486 182.002 53.1236 182.267C53.5024 182.528 53.9721 182.659 54.5327 182.659ZM69.1009 175.273V176.409H64.5781V175.273H69.1009ZM65.8963 173.182H67.2372V181.5C67.2372 181.879 67.2921 182.163 67.402 182.352C67.5156 182.538 67.6596 182.663 67.8338 182.727C68.0118 182.788 68.1993 182.818 68.3963 182.818C68.544 182.818 68.6652 182.811 68.7599 182.795C68.8546 182.777 68.9304 182.761 68.9872 182.75L69.2599 183.955C69.169 183.989 69.0421 184.023 68.8793 184.057C68.7164 184.095 68.5099 184.114 68.2599 184.114C67.8812 184.114 67.5099 184.032 67.1463 183.869C66.7865 183.706 66.4872 183.458 66.2486 183.125C66.0137 182.792 65.8963 182.371 65.8963 181.864V173.182ZM72.6463 178.75V184H71.3054V172.364H72.6463V176.636H72.7599C72.9645 176.186 73.2713 175.828 73.6804 175.562C74.0933 175.294 74.6425 175.159 75.3281 175.159C75.9228 175.159 76.4437 175.278 76.8906 175.517C77.3376 175.752 77.6842 176.114 77.9304 176.602C78.1804 177.087 78.3054 177.705 78.3054 178.455V184H76.9645V178.545C76.9645 177.852 76.7846 177.316 76.4247 176.938C76.0687 176.555 75.5743 176.364 74.9418 176.364C74.5024 176.364 74.1084 176.456 73.7599 176.642C73.4152 176.828 73.1425 177.098 72.9418 177.455C72.7448 177.811 72.6463 178.242 72.6463 178.75ZM84.4176 184.182C83.5767 184.182 82.8513 183.996 82.2415 183.625C81.6354 183.25 81.1676 182.727 80.8381 182.057C80.5123 181.383 80.3494 180.598 80.3494 179.705C80.3494 178.811 80.5123 178.023 80.8381 177.341C81.1676 176.655 81.6259 176.121 82.2131 175.739C82.804 175.352 83.4934 175.159 84.2812 175.159C84.7358 175.159 85.1847 175.235 85.6278 175.386C86.071 175.538 86.4744 175.784 86.8381 176.125C87.2017 176.462 87.4915 176.909 87.7074 177.466C87.9233 178.023 88.0312 178.708 88.0312 179.523V180.091H81.304V178.932H86.6676C86.6676 178.439 86.5691 178 86.3722 177.614C86.179 177.227 85.9025 176.922 85.5426 176.699C85.1866 176.475 84.7661 176.364 84.2812 176.364C83.7472 176.364 83.285 176.496 82.8949 176.761C82.5085 177.023 82.2112 177.364 82.0028 177.784C81.7945 178.205 81.6903 178.655 81.6903 179.136V179.909C81.6903 180.568 81.804 181.127 82.0312 181.585C82.2623 182.04 82.5824 182.386 82.9915 182.625C83.4006 182.86 83.8759 182.977 84.4176 182.977C84.7699 182.977 85.0881 182.928 85.3722 182.83C85.66 182.727 85.9081 182.576 86.1165 182.375C86.3248 182.17 86.4858 181.917 86.5994 181.614L87.8949 181.977C87.7585 182.417 87.5294 182.803 87.2074 183.136C86.8854 183.466 86.4877 183.723 86.0142 183.909C85.5407 184.091 85.0085 184.182 84.4176 184.182ZM100.753 177.227L99.5483 177.568C99.4725 177.367 99.3608 177.172 99.2131 176.983C99.0691 176.79 98.8722 176.631 98.6222 176.506C98.3722 176.381 98.0521 176.318 97.6619 176.318C97.1278 176.318 96.6828 176.441 96.3267 176.688C95.9744 176.93 95.7983 177.239 95.7983 177.614C95.7983 177.947 95.9195 178.21 96.1619 178.403C96.4044 178.597 96.7831 178.758 97.2983 178.886L98.5938 179.205C99.3741 179.394 99.9555 179.684 100.338 180.074C100.721 180.46 100.912 180.958 100.912 181.568C100.912 182.068 100.768 182.515 100.48 182.909C100.196 183.303 99.7983 183.614 99.2869 183.841C98.7756 184.068 98.1809 184.182 97.5028 184.182C96.6127 184.182 95.8759 183.989 95.2926 183.602C94.7093 183.216 94.34 182.652 94.1847 181.909L95.4574 181.591C95.5786 182.061 95.8078 182.413 96.1449 182.648C96.4858 182.883 96.9309 183 97.4801 183C98.1051 183 98.6013 182.867 98.9688 182.602C99.34 182.333 99.5256 182.011 99.5256 181.636C99.5256 181.333 99.4195 181.08 99.2074 180.875C98.9953 180.667 98.6695 180.511 98.2301 180.409L96.7756 180.068C95.9763 179.879 95.3892 179.585 95.0142 179.188C94.643 178.786 94.4574 178.284 94.4574 177.682C94.4574 177.189 94.5956 176.754 94.8722 176.375C95.1525 175.996 95.5331 175.699 96.0142 175.483C96.4991 175.267 97.0483 175.159 97.6619 175.159C98.5256 175.159 99.2036 175.348 99.696 175.727C100.192 176.106 100.545 176.606 100.753 177.227ZM106.476 184.182C105.658 184.182 104.953 183.989 104.362 183.602C103.771 183.216 103.317 182.684 102.999 182.006C102.68 181.328 102.521 180.553 102.521 179.682C102.521 178.795 102.684 178.013 103.01 177.335C103.339 176.653 103.798 176.121 104.385 175.739C104.976 175.352 105.665 175.159 106.453 175.159C107.067 175.159 107.62 175.273 108.112 175.5C108.605 175.727 109.008 176.045 109.322 176.455C109.637 176.864 109.832 177.341 109.908 177.886H108.567C108.464 177.489 108.237 177.136 107.885 176.83C107.536 176.519 107.067 176.364 106.476 176.364C105.953 176.364 105.495 176.5 105.101 176.773C104.711 177.042 104.406 177.422 104.186 177.915C103.97 178.403 103.862 178.977 103.862 179.636C103.862 180.311 103.968 180.898 104.18 181.398C104.396 181.898 104.699 182.286 105.089 182.562C105.483 182.839 105.946 182.977 106.476 182.977C106.824 182.977 107.141 182.917 107.425 182.795C107.709 182.674 107.949 182.5 108.146 182.273C108.343 182.045 108.483 181.773 108.567 181.455H109.908C109.832 181.97 109.644 182.434 109.345 182.847C109.05 183.256 108.658 183.581 108.169 183.824C107.684 184.062 107.12 184.182 106.476 184.182ZM111.868 184V175.273H113.163V176.591H113.254C113.413 176.159 113.701 175.809 114.118 175.54C114.535 175.271 115.004 175.136 115.527 175.136C115.625 175.136 115.749 175.138 115.896 175.142C116.044 175.146 116.156 175.152 116.232 175.159V176.523C116.186 176.511 116.082 176.494 115.919 176.472C115.76 176.445 115.591 176.432 115.413 176.432C114.989 176.432 114.61 176.521 114.277 176.699C113.947 176.873 113.686 177.116 113.493 177.426C113.304 177.733 113.209 178.083 113.209 178.477V184H111.868ZM121.214 184.182C120.374 184.182 119.648 183.996 119.038 183.625C118.432 183.25 117.964 182.727 117.635 182.057C117.309 181.383 117.146 180.598 117.146 179.705C117.146 178.811 117.309 178.023 117.635 177.341C117.964 176.655 118.423 176.121 119.01 175.739C119.601 175.352 120.29 175.159 121.078 175.159C121.533 175.159 121.982 175.235 122.425 175.386C122.868 175.538 123.271 175.784 123.635 176.125C123.999 176.462 124.288 176.909 124.504 177.466C124.72 178.023 124.828 178.708 124.828 179.523V180.091H118.101V178.932H123.464C123.464 178.439 123.366 178 123.169 177.614C122.976 177.227 122.699 176.922 122.339 176.699C121.983 176.475 121.563 176.364 121.078 176.364C120.544 176.364 120.082 176.496 119.692 176.761C119.305 177.023 119.008 177.364 118.8 177.784C118.591 178.205 118.487 178.655 118.487 179.136V179.909C118.487 180.568 118.601 181.127 118.828 181.585C119.059 182.04 119.379 182.386 119.788 182.625C120.197 182.86 120.673 182.977 121.214 182.977C121.567 182.977 121.885 182.928 122.169 182.83C122.457 182.727 122.705 182.576 122.913 182.375C123.122 182.17 123.283 181.917 123.396 181.614L124.692 181.977C124.555 182.417 124.326 182.803 124.004 183.136C123.682 183.466 123.285 183.723 122.811 183.909C122.338 184.091 121.805 184.182 121.214 184.182ZM130.527 184.182C129.686 184.182 128.961 183.996 128.351 183.625C127.745 183.25 127.277 182.727 126.947 182.057C126.622 181.383 126.459 180.598 126.459 179.705C126.459 178.811 126.622 178.023 126.947 177.341C127.277 176.655 127.735 176.121 128.322 175.739C128.913 175.352 129.603 175.159 130.391 175.159C130.845 175.159 131.294 175.235 131.737 175.386C132.18 175.538 132.584 175.784 132.947 176.125C133.311 176.462 133.601 176.909 133.817 177.466C134.033 178.023 134.141 178.708 134.141 179.523V180.091H127.413V178.932H132.777C132.777 178.439 132.679 178 132.482 177.614C132.288 177.227 132.012 176.922 131.652 176.699C131.296 176.475 130.875 176.364 130.391 176.364C129.857 176.364 129.394 176.496 129.004 176.761C128.618 177.023 128.321 177.364 128.112 177.784C127.904 178.205 127.8 178.655 127.8 179.136V179.909C127.8 180.568 127.913 181.127 128.141 181.585C128.372 182.04 128.692 182.386 129.101 182.625C129.51 182.86 129.985 182.977 130.527 182.977C130.879 182.977 131.197 182.928 131.482 182.83C131.769 182.727 132.018 182.576 132.226 182.375C132.434 182.17 132.595 181.917 132.709 181.614L134.004 181.977C133.868 182.417 133.639 182.803 133.317 183.136C132.995 183.466 132.597 183.723 132.124 183.909C131.65 184.091 131.118 184.182 130.527 184.182ZM137.521 178.75V184H136.18V175.273H137.476V176.636H137.589C137.794 176.193 138.105 175.837 138.521 175.568C138.938 175.295 139.476 175.159 140.135 175.159C140.726 175.159 141.243 175.28 141.686 175.523C142.129 175.761 142.474 176.125 142.72 176.614C142.966 177.098 143.089 177.712 143.089 178.455V184H141.749V178.545C141.749 177.86 141.571 177.326 141.214 176.943C140.858 176.557 140.37 176.364 139.749 176.364C139.321 176.364 138.938 176.456 138.601 176.642C138.268 176.828 138.004 177.098 137.811 177.455C137.618 177.811 137.521 178.242 137.521 178.75ZM7.53267 203L4.87358 194.273H6.28267L8.16903 200.955H8.25994L10.1236 194.273H11.5554L13.3963 200.932H13.4872L15.3736 194.273H16.7827L14.1236 203H12.8054L10.8963 196.295H10.7599L8.85085 203H7.53267ZM18.5554 203V194.273H19.8963V203H18.5554ZM19.2372 192.818C18.9759 192.818 18.7505 192.729 18.5611 192.551C18.3755 192.373 18.2827 192.159 18.2827 191.909C18.2827 191.659 18.3755 191.445 18.5611 191.267C18.7505 191.089 18.9759 191 19.2372 191C19.4986 191 19.7221 191.089 19.9077 191.267C20.0971 191.445 20.1918 191.659 20.1918 191.909C20.1918 192.159 20.0971 192.373 19.9077 192.551C19.7221 192.729 19.4986 192.818 19.2372 192.818ZM23.6932 191.364V203H22.3523V191.364H23.6932ZM27.4901 191.364V203H26.1491V191.364H27.4901ZM40.6278 196.227L39.4233 196.568C39.3475 196.367 39.2358 196.172 39.0881 195.983C38.9441 195.79 38.7472 195.631 38.4972 195.506C38.2472 195.381 37.9271 195.318 37.5369 195.318C37.0028 195.318 36.5578 195.441 36.2017 195.688C35.8494 195.93 35.6733 196.239 35.6733 196.614C35.6733 196.947 35.7945 197.21 36.0369 197.403C36.2794 197.597 36.6581 197.758 37.1733 197.886L38.4688 198.205C39.2491 198.394 39.8305 198.684 40.2131 199.074C40.5956 199.46 40.7869 199.958 40.7869 200.568C40.7869 201.068 40.643 201.515 40.3551 201.909C40.071 202.303 39.6733 202.614 39.1619 202.841C38.6506 203.068 38.0559 203.182 37.3778 203.182C36.4877 203.182 35.7509 202.989 35.1676 202.602C34.5843 202.216 34.215 201.652 34.0597 200.909L35.3324 200.591C35.4536 201.061 35.6828 201.413 36.0199 201.648C36.3608 201.883 36.8059 202 37.3551 202C37.9801 202 38.4763 201.867 38.8438 201.602C39.215 201.333 39.4006 201.011 39.4006 200.636C39.4006 200.333 39.2945 200.08 39.0824 199.875C38.8703 199.667 38.5445 199.511 38.1051 199.409L36.6506 199.068C35.8513 198.879 35.2642 198.585 34.8892 198.188C34.518 197.786 34.3324 197.284 34.3324 196.682C34.3324 196.189 34.4706 195.754 34.7472 195.375C35.0275 194.996 35.4081 194.699 35.8892 194.483C36.3741 194.267 36.9233 194.159 37.5369 194.159C38.4006 194.159 39.0786 194.348 39.571 194.727C40.0672 195.106 40.4195 195.606 40.6278 196.227ZM46.6009 194.273V195.409H42.0781V194.273H46.6009ZM43.3963 192.182H44.7372V200.5C44.7372 200.879 44.7921 201.163 44.902 201.352C45.0156 201.538 45.1596 201.663 45.3338 201.727C45.5118 201.788 45.6993 201.818 45.8963 201.818C46.044 201.818 46.1652 201.811 46.2599 201.795C46.3546 201.777 46.4304 201.761 46.4872 201.75L46.7599 202.955C46.669 202.989 46.5421 203.023 46.3793 203.057C46.2164 203.095 46.0099 203.114 45.7599 203.114C45.3812 203.114 45.0099 203.032 44.6463 202.869C44.2865 202.706 43.9872 202.458 43.7486 202.125C43.5137 201.792 43.3963 201.371 43.3963 200.864V192.182ZM51.1861 203.205C50.633 203.205 50.1312 203.1 49.6804 202.892C49.2296 202.68 48.8717 202.375 48.6065 201.977C48.3414 201.576 48.2088 201.091 48.2088 200.523C48.2088 200.023 48.3073 199.617 48.5043 199.307C48.7012 198.992 48.9645 198.746 49.294 198.568C49.6236 198.39 49.9872 198.258 50.3849 198.17C50.7865 198.08 51.1899 198.008 51.5952 197.955C52.1255 197.886 52.5554 197.835 52.8849 197.801C53.2183 197.763 53.4607 197.701 53.6122 197.614C53.7675 197.527 53.8452 197.375 53.8452 197.159V197.114C53.8452 196.553 53.6918 196.117 53.3849 195.807C53.0819 195.496 52.6217 195.341 52.0043 195.341C51.3641 195.341 50.8622 195.481 50.4986 195.761C50.1349 196.042 49.8793 196.341 49.7315 196.659L48.4588 196.205C48.6861 195.674 48.9891 195.261 49.3679 194.966C49.7505 194.667 50.1671 194.458 50.6179 194.341C51.0724 194.22 51.5194 194.159 51.9588 194.159C52.2391 194.159 52.5611 194.193 52.9247 194.261C53.2921 194.326 53.6463 194.46 53.9872 194.665C54.3319 194.869 54.6179 195.178 54.8452 195.591C55.0724 196.004 55.1861 196.557 55.1861 197.25V203H53.8452V201.818H53.777C53.6861 202.008 53.5346 202.21 53.3224 202.426C53.1103 202.642 52.8281 202.826 52.4759 202.977C52.1236 203.129 51.6937 203.205 51.1861 203.205ZM51.3906 202C51.9209 202 52.3679 201.896 52.7315 201.688C53.099 201.479 53.3755 201.21 53.5611 200.881C53.7505 200.551 53.8452 200.205 53.8452 199.841V198.614C53.7884 198.682 53.6634 198.744 53.4702 198.801C53.2808 198.854 53.0611 198.902 52.8111 198.943C52.5649 198.981 52.3243 199.015 52.0895 199.045C51.8584 199.072 51.6709 199.095 51.527 199.114C51.1785 199.159 50.8527 199.233 50.5497 199.335C50.2505 199.434 50.008 199.583 49.8224 199.784C49.6406 199.981 49.5497 200.25 49.5497 200.591C49.5497 201.057 49.7221 201.409 50.0668 201.648C50.4152 201.883 50.8565 202 51.3906 202ZM57.6335 203V194.273H58.929V195.591H59.0199C59.179 195.159 59.4669 194.809 59.8835 194.54C60.3002 194.271 60.7699 194.136 61.2926 194.136C61.3911 194.136 61.5142 194.138 61.6619 194.142C61.8097 194.146 61.9214 194.152 61.9972 194.159V195.523C61.9517 195.511 61.8475 195.494 61.6847 195.472C61.5256 195.445 61.357 195.432 61.179 195.432C60.7547 195.432 60.3759 195.521 60.0426 195.699C59.7131 195.873 59.4517 196.116 59.2585 196.426C59.0691 196.733 58.9744 197.083 58.9744 197.477V203H57.6335ZM67.929 194.273V195.409H63.4062V194.273H67.929ZM64.7244 192.182H66.0653V200.5C66.0653 200.879 66.1203 201.163 66.2301 201.352C66.3438 201.538 66.4877 201.663 66.6619 201.727C66.84 201.788 67.0275 201.818 67.2244 201.818C67.3722 201.818 67.4934 201.811 67.5881 201.795C67.6828 201.777 67.7585 201.761 67.8153 201.75L68.0881 202.955C67.9972 202.989 67.8703 203.023 67.7074 203.057C67.5445 203.095 67.3381 203.114 67.0881 203.114C66.7093 203.114 66.3381 203.032 65.9744 202.869C65.6146 202.706 65.3153 202.458 65.0767 202.125C64.8419 201.792 64.7244 201.371 64.7244 200.864V192.182ZM78.2415 194.273V195.409H73.7188V194.273H78.2415ZM75.0369 192.182H76.3778V200.5C76.3778 200.879 76.4328 201.163 76.5426 201.352C76.6563 201.538 76.8002 201.663 76.9744 201.727C77.1525 201.788 77.34 201.818 77.5369 201.818C77.6847 201.818 77.8059 201.811 77.9006 201.795C77.9953 201.777 78.071 201.761 78.1278 201.75L78.4006 202.955C78.3097 202.989 78.1828 203.023 78.0199 203.057C77.857 203.095 77.6506 203.114 77.4006 203.114C77.0218 203.114 76.6506 203.032 76.2869 202.869C75.9271 202.706 75.6278 202.458 75.3892 202.125C75.1544 201.792 75.0369 201.371 75.0369 200.864V192.182ZM81.7869 197.75V203H80.446V191.364H81.7869V195.636H81.9006C82.1051 195.186 82.4119 194.828 82.821 194.562C83.2339 194.294 83.7831 194.159 84.4688 194.159C85.0634 194.159 85.5843 194.278 86.0312 194.517C86.4782 194.752 86.8248 195.114 87.071 195.602C87.321 196.087 87.446 196.705 87.446 197.455V203H86.1051V197.545C86.1051 196.852 85.9252 196.316 85.5653 195.938C85.2093 195.555 84.715 195.364 84.0824 195.364C83.643 195.364 83.2491 195.456 82.9006 195.642C82.5559 195.828 82.2831 196.098 82.0824 196.455C81.8854 196.811 81.7869 197.242 81.7869 197.75ZM93.5582 203.182C92.7173 203.182 91.992 202.996 91.3821 202.625C90.776 202.25 90.3082 201.727 89.9787 201.057C89.6529 200.383 89.4901 199.598 89.4901 198.705C89.4901 197.811 89.6529 197.023 89.9787 196.341C90.3082 195.655 90.7666 195.121 91.3537 194.739C91.9446 194.352 92.634 194.159 93.4219 194.159C93.8764 194.159 94.3253 194.235 94.7685 194.386C95.2116 194.538 95.6151 194.784 95.9787 195.125C96.3423 195.462 96.6321 195.909 96.848 196.466C97.0639 197.023 97.1719 197.708 97.1719 198.523V199.091H90.4446V197.932H95.8082C95.8082 197.439 95.7098 197 95.5128 196.614C95.3196 196.227 95.0431 195.922 94.6832 195.699C94.3272 195.475 93.9067 195.364 93.4219 195.364C92.8878 195.364 92.4257 195.496 92.0355 195.761C91.6491 196.023 91.3518 196.364 91.1435 196.784C90.9351 197.205 90.831 197.655 90.831 198.136V198.909C90.831 199.568 90.9446 200.127 91.1719 200.585C91.4029 201.04 91.723 201.386 92.1321 201.625C92.5412 201.86 93.0166 201.977 93.5582 201.977C93.9105 201.977 94.2287 201.928 94.5128 201.83C94.8007 201.727 95.0488 201.576 95.2571 201.375C95.4654 201.17 95.6264 200.917 95.7401 200.614L97.0355 200.977C96.8991 201.417 96.67 201.803 96.348 202.136C96.026 202.466 95.6283 202.723 95.1548 202.909C94.6813 203.091 94.1491 203.182 93.5582 203.182ZM107.507 194.273V195.409H102.984V194.273H107.507ZM104.303 192.182H105.643V200.5C105.643 200.879 105.698 201.163 105.808 201.352C105.922 201.538 106.066 201.663 106.24 201.727C106.418 201.788 106.606 201.818 106.803 201.818C106.95 201.818 107.071 201.811 107.166 201.795C107.261 201.777 107.337 201.761 107.393 201.75L107.666 202.955C107.575 202.989 107.448 203.023 107.286 203.057C107.123 203.095 106.916 203.114 106.666 203.114C106.287 203.114 105.916 203.032 105.553 202.869C105.193 202.706 104.893 202.458 104.655 202.125C104.42 201.792 104.303 201.371 104.303 200.864V192.182ZM109.524 203V194.273H110.865V203H109.524ZM110.206 192.818C109.945 192.818 109.719 192.729 109.53 192.551C109.344 192.373 109.251 192.159 109.251 191.909C109.251 191.659 109.344 191.445 109.53 191.267C109.719 191.089 109.945 191 110.206 191C110.467 191 110.691 191.089 110.876 191.267C111.066 191.445 111.161 191.659 111.161 191.909C111.161 192.159 111.066 192.373 110.876 192.551C110.691 192.729 110.467 192.818 110.206 192.818ZM113.321 203V194.273H114.616V195.636H114.73C114.912 195.17 115.205 194.809 115.611 194.551C116.016 194.29 116.503 194.159 117.071 194.159C117.647 194.159 118.126 194.29 118.509 194.551C118.895 194.809 119.196 195.17 119.412 195.636H119.503C119.726 195.186 120.062 194.828 120.509 194.562C120.955 194.294 121.491 194.159 122.116 194.159C122.897 194.159 123.535 194.403 124.031 194.892C124.527 195.377 124.776 196.133 124.776 197.159V203H123.435V197.159C123.435 196.515 123.259 196.055 122.906 195.778C122.554 195.502 122.139 195.364 121.662 195.364C121.048 195.364 120.573 195.549 120.236 195.92C119.899 196.288 119.73 196.754 119.73 197.318V203H118.366V197.023C118.366 196.527 118.205 196.127 117.884 195.824C117.562 195.517 117.147 195.364 116.639 195.364C116.291 195.364 115.965 195.456 115.662 195.642C115.363 195.828 115.12 196.085 114.935 196.415C114.753 196.741 114.662 197.117 114.662 197.545V203H113.321ZM130.886 203.182C130.045 203.182 129.32 202.996 128.71 202.625C128.104 202.25 127.636 201.727 127.307 201.057C126.981 200.383 126.818 199.598 126.818 198.705C126.818 197.811 126.981 197.023 127.307 196.341C127.636 195.655 128.095 195.121 128.682 194.739C129.273 194.352 129.962 194.159 130.75 194.159C131.205 194.159 131.653 194.235 132.097 194.386C132.54 194.538 132.943 194.784 133.307 195.125C133.67 195.462 133.96 195.909 134.176 196.466C134.392 197.023 134.5 197.708 134.5 198.523V199.091H127.773V197.932H133.136C133.136 197.439 133.038 197 132.841 196.614C132.648 196.227 132.371 195.922 132.011 195.699C131.655 195.475 131.235 195.364 130.75 195.364C130.216 195.364 129.754 195.496 129.364 195.761C128.977 196.023 128.68 196.364 128.472 196.784C128.263 197.205 128.159 197.655 128.159 198.136V198.909C128.159 199.568 128.273 200.127 128.5 200.585C128.731 201.04 129.051 201.386 129.46 201.625C129.869 201.86 130.345 201.977 130.886 201.977C131.239 201.977 131.557 201.928 131.841 201.83C132.129 201.727 132.377 201.576 132.585 201.375C132.794 201.17 132.955 200.917 133.068 200.614L134.364 200.977C134.227 201.417 133.998 201.803 133.676 202.136C133.354 202.466 132.956 202.723 132.483 202.909C132.009 203.091 131.477 203.182 130.886 203.182ZM136.54 203V194.273H137.835V195.591H137.926C138.085 195.159 138.373 194.809 138.79 194.54C139.206 194.271 139.676 194.136 140.199 194.136C140.297 194.136 140.42 194.138 140.568 194.142C140.716 194.146 140.828 194.152 140.903 194.159V195.523C140.858 195.511 140.754 195.494 140.591 195.472C140.432 195.445 140.263 195.432 140.085 195.432C139.661 195.432 139.282 195.521 138.949 195.699C138.619 195.873 138.358 196.116 138.165 196.426C137.975 196.733 137.881 197.083 137.881 197.477V203H136.54ZM142.47 203.091C142.19 203.091 141.949 202.991 141.749 202.79C141.548 202.589 141.447 202.348 141.447 202.068C141.447 201.788 141.548 201.547 141.749 201.347C141.949 201.146 142.19 201.045 142.47 201.045C142.75 201.045 142.991 201.146 143.192 201.347C143.393 201.547 143.493 201.788 143.493 202.068C143.493 202.254 143.446 202.424 143.351 202.58C143.26 202.735 143.137 202.86 142.982 202.955C142.83 203.045 142.66 203.091 142.47 203.091Z" fill="#EFEAD8"/>
<g filter="url(#filter0_d_917_1258)">
<path d="M32.6154 30.9661C32.6154 29.7161 33.6297 28.7028 34.8808 28.7028C36.132 28.7028 37.1462 29.7161 37.1462 30.9661V49.5891C37.1462 50.8391 36.132 51.8525 34.8808 51.8525C33.6297 51.8525 32.6154 50.8391 32.6154 49.5891V30.9661Z" fill="#27374D" stroke="black" stroke-width="3"/>
<path d="M112.937 32.6591C112.937 31.4091 113.952 30.3958 115.203 30.3958C116.454 30.3958 117.468 31.4091 117.468 32.6591V39.7697C117.468 41.0197 116.454 42.033 115.203 42.033C113.952 42.033 112.937 41.0197 112.937 39.7697V32.6591Z" fill="#27374D" stroke="black" stroke-width="3"/>
<path d="M112.937 45.526C112.937 44.276 113.952 43.2627 115.203 43.2627C116.454 43.2627 117.468 44.276 117.468 45.526V52.6366C117.468 53.8867 116.454 54.9 115.203 54.9C113.952 54.9 112.937 53.8867 112.937 52.6366V45.526Z" fill="#27374D" stroke="black" stroke-width="3"/>
<path d="M52.8318 1.61475H97.5905C107.446 1.61475 115.435 9.59655 115.435 19.4426V132.557C115.435 142.403 107.446 150.385 97.5905 150.385H52.8318C42.9767 150.385 34.9876 142.403 34.9876 132.557V19.4426C34.9876 9.59655 42.9767 1.61475 52.8318 1.61475Z" fill="#27374D" stroke="black" stroke-width="3"/>
<path d="M41.5921 16.9143C41.5921 12.6697 45.0361 9.22888 49.2845 9.22888C53.5329 9.22888 56.9769 12.6697 56.9769 16.9143V32.4898C56.9769 36.7343 53.5329 40.1752 49.2845 40.1752C45.0361 40.1752 41.5921 36.7343 41.5921 32.4898V16.9143Z" fill="black" stroke="#EFEAD8" stroke-width="0.5"/>
<path d="M44.8786 17.4222C44.8786 14.8976 46.927 12.8511 49.4539 12.8511C51.9807 12.8511 54.0292 14.8976 54.0292 17.4222C54.0292 19.9467 51.9807 21.9933 49.4539 21.9933C46.927 21.9933 44.8786 19.9467 44.8786 17.4222Z" fill="#EFEAD8"/>
<path d="M46.2343 33.167C46.2343 31.484 47.5999 30.1196 49.2845 30.1196C50.9691 30.1196 52.3347 31.484 52.3347 33.167C52.3347 34.8501 50.9691 36.2144 49.2845 36.2144C47.5999 36.2144 46.2343 34.8501 46.2343 33.167Z" fill="#EFEAD8"/>
</g>
<defs>
<filter id="filter0_d_917_1258" x="31.1154" y="0.114746" width="96.8528" height="165.771" filterUnits="userSpaceOnUse" color-interpolation-filters="sRGB">
<feFlood flood-opacity="0" result="BackgroundImageFix"/>
<feColorMatrix in="SourceAlpha" type="matrix" values="0 0 0 0 0 0 0 0 0 0 0 0 0 0 0 0 0 0 127 0" result="hardAlpha"/>
<feOffset dx="5" dy="10"/>
<feGaussianBlur stdDeviation="2"/>
<feComposite in2="hardAlpha" operator="out"/>
<feColorMatrix type="matrix" values="0 0 0 0 0 0 0 0 0 0 0 0 0 0 0 0 0 0 0.25 0"/>
<feBlend mode="normal" in2="BackgroundImageFix" result="effect1_dropShadow_917_1258"/>
<feBlend mode="normal" in="SourceGraphic" in2="effect1_dropShadow_917_1258" result="shape"/>
</filter>
</defs>
</svg>
