<svg width="90" height="90" viewBox="0 0 90 90" fill="none" xmlns="http://www.w3.org/2000/svg">
<circle cx="45" cy="45" r="45" fill="#27374D"/>
<mask id="mask0_672_950" style="mask-type:alpha" maskUnits="userSpaceOnUse" x="0" y="0" width="90" height="90">
<circle cx="45" cy="45" r="45" fill="#CEF4F1"/>
</mask>
<g mask="url(#mask0_672_950)">
<path fill-rule="evenodd" clip-rule="evenodd" d="M44.9999 48.2143C52.1007 48.2143 57.8571 42.4579 57.8571 35.3571C57.8571 28.2563 52.1007 22.5 44.9999 22.5C37.8991 22.5 32.1428 28.2563 32.1428 35.3571C32.1428 42.4579 37.8991 48.2143 44.9999 48.2143ZM44.9999 130.179C65.4147 130.179 81.9642 113.629 81.9642 93.2143C81.9642 72.7995 65.4147 56.25 44.9999 56.25C24.5851 56.25 8.03564 72.7995 8.03564 93.2143C8.03564 113.629 24.5851 130.179 44.9999 130.179Z" fill="#E7E7E7"/>
</g>
</svg>
