<svg width="149" height="206" viewBox="0 0 149 206" fill="none" xmlns="http://www.w3.org/2000/svg">
<g filter="url(#filter0_d_917_1259)">
<path d="M32.6154 30.9661C32.6154 29.7161 33.6297 28.7028 34.8808 28.7028C36.132 28.7028 37.1462 29.7161 37.1462 30.9661V49.5891C37.1462 50.8391 36.132 51.8525 34.8808 51.8525C33.6297 51.8525 32.6154 50.8391 32.6154 49.5891V30.9661Z" fill="#27374D" stroke="black" stroke-width="3"/>
<path d="M112.937 32.6591C112.937 31.4091 113.952 30.3958 115.203 30.3958C116.454 30.3958 117.468 31.4091 117.468 32.6591V39.7697C117.468 41.0197 116.454 42.033 115.203 42.033C113.952 42.033 112.937 41.0197 112.937 39.7697V32.6591Z" fill="#27374D" stroke="black" stroke-width="3"/>
<path d="M112.937 45.526C112.937 44.276 113.952 43.2627 115.203 43.2627C116.454 43.2627 117.468 44.276 117.468 45.526V52.6366C117.468 53.8867 116.454 54.9 115.203 54.9C113.952 54.9 112.937 53.8867 112.937 52.6366V45.526Z" fill="#27374D" stroke="black" stroke-width="3"/>
<path d="M52.8318 1.61475H97.5905C107.446 1.61475 115.435 9.59655 115.435 19.4426V132.557C115.435 142.403 107.446 150.385 97.5905 150.385H52.8318C42.9767 150.385 34.9876 142.403 34.9876 132.557V19.4426C34.9876 9.59655 42.9767 1.61475 52.8318 1.61475Z" fill="#27374D" stroke="black" stroke-width="3"/>
<path d="M41.5921 16.9143C41.5921 12.6697 45.0361 9.22888 49.2845 9.22888C53.5329 9.22888 56.9769 12.6697 56.9769 16.9143V32.4898C56.9769 36.7343 53.5329 40.1752 49.2845 40.1752C45.0361 40.1752 41.5921 36.7343 41.5921 32.4898V16.9143Z" fill="black" stroke="#EFEAD8" stroke-width="0.5"/>
<path d="M44.8786 17.4222C44.8786 14.8976 46.927 12.8511 49.4539 12.8511C51.9807 12.8511 54.0292 14.8976 54.0292 17.4222C54.0292 19.9467 51.9807 21.9933 49.4539 21.9933C46.927 21.9933 44.8786 19.9467 44.8786 17.4222Z" fill="#EFEAD8"/>
<path d="M46.2343 33.167C46.2343 31.484 47.5999 30.1196 49.2845 30.1196C50.9691 30.1196 52.3347 31.484 52.3347 33.167C52.3347 34.8501 50.9691 36.2144 49.2845 36.2144C47.5999 36.2144 46.2343 34.8501 46.2343 33.167Z" fill="#EFEAD8"/>
</g>
<path d="M1.59659 183V171.364H8.57386V172.614H3.00568V176.545H8.05114V177.795H3.00568V183H1.59659ZM12.1463 171.364V183H10.8054V171.364H12.1463ZM14.6023 183V174.273H15.9432V183H14.6023ZM15.2841 172.818C15.0227 172.818 14.7973 172.729 14.608 172.551C14.4223 172.373 14.3295 172.159 14.3295 171.909C14.3295 171.659 14.4223 171.445 14.608 171.267C14.7973 171.089 15.0227 171 15.2841 171C15.5455 171 15.7689 171.089 15.9545 171.267C16.1439 171.445 16.2386 171.659 16.2386 171.909C16.2386 172.159 16.1439 172.373 15.9545 172.551C15.7689 172.729 15.5455 172.818 15.2841 172.818ZM18.3991 186.273V174.273H19.6946V175.659H19.8537C19.9522 175.508 20.0885 175.314 20.2628 175.08C20.4408 174.841 20.6946 174.629 21.0241 174.443C21.3575 174.254 21.8082 174.159 22.3764 174.159C23.1113 174.159 23.759 174.343 24.3196 174.71C24.8802 175.078 25.3177 175.598 25.6321 176.273C25.9465 176.947 26.1037 177.742 26.1037 178.659C26.1037 179.583 25.9465 180.384 25.6321 181.062C25.3177 181.737 24.8821 182.259 24.3253 182.631C23.7685 182.998 23.1264 183.182 22.3991 183.182C21.8385 183.182 21.3897 183.089 21.0526 182.903C20.7154 182.714 20.456 182.5 20.2741 182.261C20.0923 182.019 19.9522 181.818 19.8537 181.659H19.7401V186.273H18.3991ZM19.7173 178.636C19.7173 179.295 19.8139 179.877 20.0071 180.381C20.2003 180.881 20.4825 181.273 20.8537 181.557C21.2249 181.837 21.6795 181.977 22.2173 181.977C22.7779 181.977 23.2457 181.83 23.6207 181.534C23.9995 181.235 24.2836 180.833 24.473 180.33C24.6662 179.822 24.7628 179.258 24.7628 178.636C24.7628 178.023 24.6681 177.47 24.4787 176.977C24.2931 176.481 24.0109 176.089 23.6321 175.801C23.2571 175.509 22.7855 175.364 22.2173 175.364C21.6719 175.364 21.2135 175.502 20.8423 175.778C20.4711 176.051 20.1908 176.434 20.0014 176.926C19.812 177.415 19.7173 177.985 19.7173 178.636ZM28.1491 186.273V174.273H29.4446V175.659H29.6037C29.7022 175.508 29.8385 175.314 30.0128 175.08C30.1908 174.841 30.4446 174.629 30.7741 174.443C31.1075 174.254 31.5582 174.159 32.1264 174.159C32.8613 174.159 33.509 174.343 34.0696 174.71C34.6302 175.078 35.0677 175.598 35.3821 176.273C35.6965 176.947 35.8537 177.742 35.8537 178.659C35.8537 179.583 35.6965 180.384 35.3821 181.062C35.0677 181.737 34.6321 182.259 34.0753 182.631C33.5185 182.998 32.8764 183.182 32.1491 183.182C31.5885 183.182 31.1397 183.089 30.8026 182.903C30.4654 182.714 30.206 182.5 30.0241 182.261C29.8423 182.019 29.7022 181.818 29.6037 181.659H29.4901V186.273H28.1491ZM29.4673 178.636C29.4673 179.295 29.5639 179.877 29.7571 180.381C29.9503 180.881 30.2325 181.273 30.6037 181.557C30.9749 181.837 31.4295 181.977 31.9673 181.977C32.5279 181.977 32.9957 181.83 33.3707 181.534C33.7495 181.235 34.0336 180.833 34.223 180.33C34.4162 179.822 34.5128 179.258 34.5128 178.636C34.5128 178.023 34.4181 177.47 34.2287 176.977C34.0431 176.481 33.7609 176.089 33.3821 175.801C33.0071 175.509 32.5355 175.364 31.9673 175.364C31.4219 175.364 30.9635 175.502 30.5923 175.778C30.2211 176.051 29.9408 176.434 29.7514 176.926C29.562 177.415 29.4673 177.985 29.4673 178.636ZM37.8991 183V174.273H39.2401V183H37.8991ZM38.581 172.818C38.3196 172.818 38.0942 172.729 37.9048 172.551C37.7192 172.373 37.6264 172.159 37.6264 171.909C37.6264 171.659 37.7192 171.445 37.9048 171.267C38.0942 171.089 38.3196 171 38.581 171C38.8423 171 39.0658 171.089 39.2514 171.267C39.4408 171.445 39.5355 171.659 39.5355 171.909C39.5355 172.159 39.4408 172.373 39.2514 172.551C39.0658 172.729 38.8423 172.818 38.581 172.818ZM43.0369 177.75V183H41.696V174.273H42.9915V175.636H43.1051C43.3097 175.193 43.6203 174.837 44.0369 174.568C44.4536 174.295 44.9915 174.159 45.6506 174.159C46.2415 174.159 46.7585 174.28 47.2017 174.523C47.6449 174.761 47.9896 175.125 48.2358 175.614C48.482 176.098 48.6051 176.712 48.6051 177.455V183H47.2642V177.545C47.2642 176.86 47.0862 176.326 46.7301 175.943C46.3741 175.557 45.8854 175.364 45.2642 175.364C44.8362 175.364 44.4536 175.456 44.1165 175.642C43.7831 175.828 43.5199 176.098 43.3267 176.455C43.1335 176.811 43.0369 177.242 43.0369 177.75ZM54.5781 186.455C53.9304 186.455 53.3736 186.371 52.9077 186.205C52.4418 186.042 52.0535 185.826 51.7429 185.557C51.4361 185.292 51.1918 185.008 51.0099 184.705L52.0781 183.955C52.1993 184.114 52.3527 184.295 52.5384 184.5C52.724 184.708 52.9777 184.888 53.2997 185.04C53.6255 185.195 54.0516 185.273 54.5781 185.273C55.2827 185.273 55.8641 185.102 56.3224 184.761C56.7808 184.42 57.0099 183.886 57.0099 183.159V181.386H56.8963C56.7978 181.545 56.6577 181.742 56.4759 181.977C56.2978 182.208 56.0402 182.415 55.7031 182.597C55.3698 182.775 54.919 182.864 54.3509 182.864C53.6463 182.864 53.0137 182.697 52.4531 182.364C51.8963 182.03 51.455 181.545 51.1293 180.909C50.8073 180.273 50.6463 179.5 50.6463 178.591C50.6463 177.697 50.8035 176.919 51.1179 176.256C51.4323 175.589 51.8698 175.074 52.4304 174.71C52.991 174.343 53.6387 174.159 54.3736 174.159C54.9418 174.159 55.3925 174.254 55.7259 174.443C56.063 174.629 56.3205 174.841 56.4986 175.08C56.6804 175.314 56.8205 175.508 56.919 175.659H57.0554V174.273H58.3509V183.25C58.3509 184 58.1804 184.61 57.8395 185.08C57.5024 185.553 57.0478 185.9 56.4759 186.119C55.9077 186.343 55.2751 186.455 54.5781 186.455ZM54.5327 181.659C55.0705 181.659 55.5251 181.536 55.8963 181.29C56.2675 181.044 56.5497 180.689 56.7429 180.227C56.9361 179.765 57.0327 179.212 57.0327 178.568C57.0327 177.939 56.938 177.384 56.7486 176.903C56.5592 176.422 56.2789 176.045 55.9077 175.773C55.5365 175.5 55.0781 175.364 54.5327 175.364C53.9645 175.364 53.491 175.508 53.1122 175.795C52.7372 176.083 52.455 176.47 52.2656 176.955C52.08 177.439 51.9872 177.977 51.9872 178.568C51.9872 179.174 52.0819 179.71 52.2713 180.176C52.4645 180.638 52.7486 181.002 53.1236 181.267C53.5024 181.528 53.9721 181.659 54.5327 181.659ZM69.1009 174.273V175.409H64.5781V174.273H69.1009ZM65.8963 172.182H67.2372V180.5C67.2372 180.879 67.2921 181.163 67.402 181.352C67.5156 181.538 67.6596 181.663 67.8338 181.727C68.0118 181.788 68.1993 181.818 68.3963 181.818C68.544 181.818 68.6652 181.811 68.7599 181.795C68.8546 181.777 68.9304 181.761 68.9872 181.75L69.2599 182.955C69.169 182.989 69.0421 183.023 68.8793 183.057C68.7164 183.095 68.5099 183.114 68.2599 183.114C67.8812 183.114 67.5099 183.032 67.1463 182.869C66.7865 182.706 66.4872 182.458 66.2486 182.125C66.0137 181.792 65.8963 181.371 65.8963 180.864V172.182ZM72.6463 177.75V183H71.3054V171.364H72.6463V175.636H72.7599C72.9645 175.186 73.2713 174.828 73.6804 174.562C74.0933 174.294 74.6425 174.159 75.3281 174.159C75.9228 174.159 76.4437 174.278 76.8906 174.517C77.3376 174.752 77.6842 175.114 77.9304 175.602C78.1804 176.087 78.3054 176.705 78.3054 177.455V183H76.9645V177.545C76.9645 176.852 76.7846 176.316 76.4247 175.938C76.0687 175.555 75.5743 175.364 74.9418 175.364C74.5024 175.364 74.1084 175.456 73.7599 175.642C73.4152 175.828 73.1425 176.098 72.9418 176.455C72.7448 176.811 72.6463 177.242 72.6463 177.75ZM84.4176 183.182C83.5767 183.182 82.8513 182.996 82.2415 182.625C81.6354 182.25 81.1676 181.727 80.8381 181.057C80.5123 180.383 80.3494 179.598 80.3494 178.705C80.3494 177.811 80.5123 177.023 80.8381 176.341C81.1676 175.655 81.6259 175.121 82.2131 174.739C82.804 174.352 83.4934 174.159 84.2812 174.159C84.7358 174.159 85.1847 174.235 85.6278 174.386C86.071 174.538 86.4744 174.784 86.8381 175.125C87.2017 175.462 87.4915 175.909 87.7074 176.466C87.9233 177.023 88.0312 177.708 88.0312 178.523V179.091H81.304V177.932H86.6676C86.6676 177.439 86.5691 177 86.3722 176.614C86.179 176.227 85.9025 175.922 85.5426 175.699C85.1866 175.475 84.7661 175.364 84.2812 175.364C83.7472 175.364 83.285 175.496 82.8949 175.761C82.5085 176.023 82.2112 176.364 82.0028 176.784C81.7945 177.205 81.6903 177.655 81.6903 178.136V178.909C81.6903 179.568 81.804 180.127 82.0312 180.585C82.2623 181.04 82.5824 181.386 82.9915 181.625C83.4006 181.86 83.8759 181.977 84.4176 181.977C84.7699 181.977 85.0881 181.928 85.3722 181.83C85.66 181.727 85.9081 181.576 86.1165 181.375C86.3248 181.17 86.4858 180.917 86.5994 180.614L87.8949 180.977C87.7585 181.417 87.5294 181.803 87.2074 182.136C86.8854 182.466 86.4877 182.723 86.0142 182.909C85.5407 183.091 85.0085 183.182 84.4176 183.182ZM100.753 176.227L99.5483 176.568C99.4725 176.367 99.3608 176.172 99.2131 175.983C99.0691 175.79 98.8722 175.631 98.6222 175.506C98.3722 175.381 98.0521 175.318 97.6619 175.318C97.1278 175.318 96.6828 175.441 96.3267 175.688C95.9744 175.93 95.7983 176.239 95.7983 176.614C95.7983 176.947 95.9195 177.21 96.1619 177.403C96.4044 177.597 96.7831 177.758 97.2983 177.886L98.5938 178.205C99.3741 178.394 99.9555 178.684 100.338 179.074C100.721 179.46 100.912 179.958 100.912 180.568C100.912 181.068 100.768 181.515 100.48 181.909C100.196 182.303 99.7983 182.614 99.2869 182.841C98.7756 183.068 98.1809 183.182 97.5028 183.182C96.6127 183.182 95.8759 182.989 95.2926 182.602C94.7093 182.216 94.34 181.652 94.1847 180.909L95.4574 180.591C95.5786 181.061 95.8078 181.413 96.1449 181.648C96.4858 181.883 96.9309 182 97.4801 182C98.1051 182 98.6013 181.867 98.9688 181.602C99.34 181.333 99.5256 181.011 99.5256 180.636C99.5256 180.333 99.4195 180.08 99.2074 179.875C98.9953 179.667 98.6695 179.511 98.2301 179.409L96.7756 179.068C95.9763 178.879 95.3892 178.585 95.0142 178.188C94.643 177.786 94.4574 177.284 94.4574 176.682C94.4574 176.189 94.5956 175.754 94.8722 175.375C95.1525 174.996 95.5331 174.699 96.0142 174.483C96.4991 174.267 97.0483 174.159 97.6619 174.159C98.5256 174.159 99.2036 174.348 99.696 174.727C100.192 175.106 100.545 175.606 100.753 176.227ZM106.476 183.182C105.658 183.182 104.953 182.989 104.362 182.602C103.771 182.216 103.317 181.684 102.999 181.006C102.68 180.328 102.521 179.553 102.521 178.682C102.521 177.795 102.684 177.013 103.01 176.335C103.339 175.653 103.798 175.121 104.385 174.739C104.976 174.352 105.665 174.159 106.453 174.159C107.067 174.159 107.62 174.273 108.112 174.5C108.605 174.727 109.008 175.045 109.322 175.455C109.637 175.864 109.832 176.341 109.908 176.886H108.567C108.464 176.489 108.237 176.136 107.885 175.83C107.536 175.519 107.067 175.364 106.476 175.364C105.953 175.364 105.495 175.5 105.101 175.773C104.711 176.042 104.406 176.422 104.186 176.915C103.97 177.403 103.862 177.977 103.862 178.636C103.862 179.311 103.968 179.898 104.18 180.398C104.396 180.898 104.699 181.286 105.089 181.562C105.483 181.839 105.946 181.977 106.476 181.977C106.824 181.977 107.141 181.917 107.425 181.795C107.709 181.674 107.949 181.5 108.146 181.273C108.343 181.045 108.483 180.773 108.567 180.455H109.908C109.832 180.97 109.644 181.434 109.345 181.847C109.05 182.256 108.658 182.581 108.169 182.824C107.684 183.062 107.12 183.182 106.476 183.182ZM111.868 183V174.273H113.163V175.591H113.254C113.413 175.159 113.701 174.809 114.118 174.54C114.535 174.271 115.004 174.136 115.527 174.136C115.625 174.136 115.749 174.138 115.896 174.142C116.044 174.146 116.156 174.152 116.232 174.159V175.523C116.186 175.511 116.082 175.494 115.919 175.472C115.76 175.445 115.591 175.432 115.413 175.432C114.989 175.432 114.61 175.521 114.277 175.699C113.947 175.873 113.686 176.116 113.493 176.426C113.304 176.733 113.209 177.083 113.209 177.477V183H111.868ZM121.214 183.182C120.374 183.182 119.648 182.996 119.038 182.625C118.432 182.25 117.964 181.727 117.635 181.057C117.309 180.383 117.146 179.598 117.146 178.705C117.146 177.811 117.309 177.023 117.635 176.341C117.964 175.655 118.423 175.121 119.01 174.739C119.601 174.352 120.29 174.159 121.078 174.159C121.533 174.159 121.982 174.235 122.425 174.386C122.868 174.538 123.271 174.784 123.635 175.125C123.999 175.462 124.288 175.909 124.504 176.466C124.72 177.023 124.828 177.708 124.828 178.523V179.091H118.101V177.932H123.464C123.464 177.439 123.366 177 123.169 176.614C122.976 176.227 122.699 175.922 122.339 175.699C121.983 175.475 121.563 175.364 121.078 175.364C120.544 175.364 120.082 175.496 119.692 175.761C119.305 176.023 119.008 176.364 118.8 176.784C118.591 177.205 118.487 177.655 118.487 178.136V178.909C118.487 179.568 118.601 180.127 118.828 180.585C119.059 181.04 119.379 181.386 119.788 181.625C120.197 181.86 120.673 181.977 121.214 181.977C121.567 181.977 121.885 181.928 122.169 181.83C122.457 181.727 122.705 181.576 122.913 181.375C123.122 181.17 123.283 180.917 123.396 180.614L124.692 180.977C124.555 181.417 124.326 181.803 124.004 182.136C123.682 182.466 123.285 182.723 122.811 182.909C122.338 183.091 121.805 183.182 121.214 183.182ZM130.527 183.182C129.686 183.182 128.961 182.996 128.351 182.625C127.745 182.25 127.277 181.727 126.947 181.057C126.622 180.383 126.459 179.598 126.459 178.705C126.459 177.811 126.622 177.023 126.947 176.341C127.277 175.655 127.735 175.121 128.322 174.739C128.913 174.352 129.603 174.159 130.391 174.159C130.845 174.159 131.294 174.235 131.737 174.386C132.18 174.538 132.584 174.784 132.947 175.125C133.311 175.462 133.601 175.909 133.817 176.466C134.033 177.023 134.141 177.708 134.141 178.523V179.091H127.413V177.932H132.777C132.777 177.439 132.679 177 132.482 176.614C132.288 176.227 132.012 175.922 131.652 175.699C131.296 175.475 130.875 175.364 130.391 175.364C129.857 175.364 129.394 175.496 129.004 175.761C128.618 176.023 128.321 176.364 128.112 176.784C127.904 177.205 127.8 177.655 127.8 178.136V178.909C127.8 179.568 127.913 180.127 128.141 180.585C128.372 181.04 128.692 181.386 129.101 181.625C129.51 181.86 129.985 181.977 130.527 181.977C130.879 181.977 131.197 181.928 131.482 181.83C131.769 181.727 132.018 181.576 132.226 181.375C132.434 181.17 132.595 180.917 132.709 180.614L134.004 180.977C133.868 181.417 133.639 181.803 133.317 182.136C132.995 182.466 132.597 182.723 132.124 182.909C131.65 183.091 131.118 183.182 130.527 183.182ZM137.521 177.75V183H136.18V174.273H137.476V175.636H137.589C137.794 175.193 138.105 174.837 138.521 174.568C138.938 174.295 139.476 174.159 140.135 174.159C140.726 174.159 141.243 174.28 141.686 174.523C142.129 174.761 142.474 175.125 142.72 175.614C142.966 176.098 143.089 176.712 143.089 177.455V183H141.749V177.545C141.749 176.86 141.571 176.326 141.214 175.943C140.858 175.557 140.37 175.364 139.749 175.364C139.321 175.364 138.938 175.456 138.601 175.642C138.268 175.828 138.004 176.098 137.811 176.455C137.618 176.811 137.521 177.242 137.521 177.75ZM7.53267 202L4.87358 193.273H6.28267L8.16903 199.955H8.25994L10.1236 193.273H11.5554L13.3963 199.932H13.4872L15.3736 193.273H16.7827L14.1236 202H12.8054L10.8963 195.295H10.7599L8.85085 202H7.53267ZM18.5554 202V193.273H19.8963V202H18.5554ZM19.2372 191.818C18.9759 191.818 18.7505 191.729 18.5611 191.551C18.3755 191.373 18.2827 191.159 18.2827 190.909C18.2827 190.659 18.3755 190.445 18.5611 190.267C18.7505 190.089 18.9759 190 19.2372 190C19.4986 190 19.7221 190.089 19.9077 190.267C20.0971 190.445 20.1918 190.659 20.1918 190.909C20.1918 191.159 20.0971 191.373 19.9077 191.551C19.7221 191.729 19.4986 191.818 19.2372 191.818ZM23.6932 190.364V202H22.3523V190.364H23.6932ZM27.4901 190.364V202H26.1491V190.364H27.4901ZM40.6278 195.227L39.4233 195.568C39.3475 195.367 39.2358 195.172 39.0881 194.983C38.9441 194.79 38.7472 194.631 38.4972 194.506C38.2472 194.381 37.9271 194.318 37.5369 194.318C37.0028 194.318 36.5578 194.441 36.2017 194.688C35.8494 194.93 35.6733 195.239 35.6733 195.614C35.6733 195.947 35.7945 196.21 36.0369 196.403C36.2794 196.597 36.6581 196.758 37.1733 196.886L38.4688 197.205C39.2491 197.394 39.8305 197.684 40.2131 198.074C40.5956 198.46 40.7869 198.958 40.7869 199.568C40.7869 200.068 40.643 200.515 40.3551 200.909C40.071 201.303 39.6733 201.614 39.1619 201.841C38.6506 202.068 38.0559 202.182 37.3778 202.182C36.4877 202.182 35.7509 201.989 35.1676 201.602C34.5843 201.216 34.215 200.652 34.0597 199.909L35.3324 199.591C35.4536 200.061 35.6828 200.413 36.0199 200.648C36.3608 200.883 36.8059 201 37.3551 201C37.9801 201 38.4763 200.867 38.8438 200.602C39.215 200.333 39.4006 200.011 39.4006 199.636C39.4006 199.333 39.2945 199.08 39.0824 198.875C38.8703 198.667 38.5445 198.511 38.1051 198.409L36.6506 198.068C35.8513 197.879 35.2642 197.585 34.8892 197.188C34.518 196.786 34.3324 196.284 34.3324 195.682C34.3324 195.189 34.4706 194.754 34.7472 194.375C35.0275 193.996 35.4081 193.699 35.8892 193.483C36.3741 193.267 36.9233 193.159 37.5369 193.159C38.4006 193.159 39.0786 193.348 39.571 193.727C40.0672 194.106 40.4195 194.606 40.6278 195.227ZM46.6009 193.273V194.409H42.0781V193.273H46.6009ZM43.3963 191.182H44.7372V199.5C44.7372 199.879 44.7921 200.163 44.902 200.352C45.0156 200.538 45.1596 200.663 45.3338 200.727C45.5118 200.788 45.6993 200.818 45.8963 200.818C46.044 200.818 46.1652 200.811 46.2599 200.795C46.3546 200.777 46.4304 200.761 46.4872 200.75L46.7599 201.955C46.669 201.989 46.5421 202.023 46.3793 202.057C46.2164 202.095 46.0099 202.114 45.7599 202.114C45.3812 202.114 45.0099 202.032 44.6463 201.869C44.2865 201.706 43.9872 201.458 43.7486 201.125C43.5137 200.792 43.3963 200.371 43.3963 199.864V191.182ZM51.1861 202.205C50.633 202.205 50.1312 202.1 49.6804 201.892C49.2296 201.68 48.8717 201.375 48.6065 200.977C48.3414 200.576 48.2088 200.091 48.2088 199.523C48.2088 199.023 48.3073 198.617 48.5043 198.307C48.7012 197.992 48.9645 197.746 49.294 197.568C49.6236 197.39 49.9872 197.258 50.3849 197.17C50.7865 197.08 51.1899 197.008 51.5952 196.955C52.1255 196.886 52.5554 196.835 52.8849 196.801C53.2183 196.763 53.4607 196.701 53.6122 196.614C53.7675 196.527 53.8452 196.375 53.8452 196.159V196.114C53.8452 195.553 53.6918 195.117 53.3849 194.807C53.0819 194.496 52.6217 194.341 52.0043 194.341C51.3641 194.341 50.8622 194.481 50.4986 194.761C50.1349 195.042 49.8793 195.341 49.7315 195.659L48.4588 195.205C48.6861 194.674 48.9891 194.261 49.3679 193.966C49.7505 193.667 50.1671 193.458 50.6179 193.341C51.0724 193.22 51.5194 193.159 51.9588 193.159C52.2391 193.159 52.5611 193.193 52.9247 193.261C53.2921 193.326 53.6463 193.46 53.9872 193.665C54.3319 193.869 54.6179 194.178 54.8452 194.591C55.0724 195.004 55.1861 195.557 55.1861 196.25V202H53.8452V200.818H53.777C53.6861 201.008 53.5346 201.21 53.3224 201.426C53.1103 201.642 52.8281 201.826 52.4759 201.977C52.1236 202.129 51.6937 202.205 51.1861 202.205ZM51.3906 201C51.9209 201 52.3679 200.896 52.7315 200.688C53.099 200.479 53.3755 200.21 53.5611 199.881C53.7505 199.551 53.8452 199.205 53.8452 198.841V197.614C53.7884 197.682 53.6634 197.744 53.4702 197.801C53.2808 197.854 53.0611 197.902 52.8111 197.943C52.5649 197.981 52.3243 198.015 52.0895 198.045C51.8584 198.072 51.6709 198.095 51.527 198.114C51.1785 198.159 50.8527 198.233 50.5497 198.335C50.2505 198.434 50.008 198.583 49.8224 198.784C49.6406 198.981 49.5497 199.25 49.5497 199.591C49.5497 200.057 49.7221 200.409 50.0668 200.648C50.4152 200.883 50.8565 201 51.3906 201ZM57.6335 202V193.273H58.929V194.591H59.0199C59.179 194.159 59.4669 193.809 59.8835 193.54C60.3002 193.271 60.7699 193.136 61.2926 193.136C61.3911 193.136 61.5142 193.138 61.6619 193.142C61.8097 193.146 61.9214 193.152 61.9972 193.159V194.523C61.9517 194.511 61.8475 194.494 61.6847 194.472C61.5256 194.445 61.357 194.432 61.179 194.432C60.7547 194.432 60.3759 194.521 60.0426 194.699C59.7131 194.873 59.4517 195.116 59.2585 195.426C59.0691 195.733 58.9744 196.083 58.9744 196.477V202H57.6335ZM67.929 193.273V194.409H63.4062V193.273H67.929ZM64.7244 191.182H66.0653V199.5C66.0653 199.879 66.1203 200.163 66.2301 200.352C66.3438 200.538 66.4877 200.663 66.6619 200.727C66.84 200.788 67.0275 200.818 67.2244 200.818C67.3722 200.818 67.4934 200.811 67.5881 200.795C67.6828 200.777 67.7585 200.761 67.8153 200.75L68.0881 201.955C67.9972 201.989 67.8703 202.023 67.7074 202.057C67.5445 202.095 67.3381 202.114 67.0881 202.114C66.7093 202.114 66.3381 202.032 65.9744 201.869C65.6146 201.706 65.3153 201.458 65.0767 201.125C64.8419 200.792 64.7244 200.371 64.7244 199.864V191.182ZM78.2415 193.273V194.409H73.7188V193.273H78.2415ZM75.0369 191.182H76.3778V199.5C76.3778 199.879 76.4328 200.163 76.5426 200.352C76.6563 200.538 76.8002 200.663 76.9744 200.727C77.1525 200.788 77.34 200.818 77.5369 200.818C77.6847 200.818 77.8059 200.811 77.9006 200.795C77.9953 200.777 78.071 200.761 78.1278 200.75L78.4006 201.955C78.3097 201.989 78.1828 202.023 78.0199 202.057C77.857 202.095 77.6506 202.114 77.4006 202.114C77.0218 202.114 76.6506 202.032 76.2869 201.869C75.9271 201.706 75.6278 201.458 75.3892 201.125C75.1544 200.792 75.0369 200.371 75.0369 199.864V191.182ZM81.7869 196.75V202H80.446V190.364H81.7869V194.636H81.9006C82.1051 194.186 82.4119 193.828 82.821 193.562C83.2339 193.294 83.7831 193.159 84.4688 193.159C85.0634 193.159 85.5843 193.278 86.0312 193.517C86.4782 193.752 86.8248 194.114 87.071 194.602C87.321 195.087 87.446 195.705 87.446 196.455V202H86.1051V196.545C86.1051 195.852 85.9252 195.316 85.5653 194.938C85.2093 194.555 84.715 194.364 84.0824 194.364C83.643 194.364 83.2491 194.456 82.9006 194.642C82.5559 194.828 82.2831 195.098 82.0824 195.455C81.8854 195.811 81.7869 196.242 81.7869 196.75ZM93.5582 202.182C92.7173 202.182 91.992 201.996 91.3821 201.625C90.776 201.25 90.3082 200.727 89.9787 200.057C89.6529 199.383 89.4901 198.598 89.4901 197.705C89.4901 196.811 89.6529 196.023 89.9787 195.341C90.3082 194.655 90.7666 194.121 91.3537 193.739C91.9446 193.352 92.634 193.159 93.4219 193.159C93.8764 193.159 94.3253 193.235 94.7685 193.386C95.2116 193.538 95.6151 193.784 95.9787 194.125C96.3423 194.462 96.6321 194.909 96.848 195.466C97.0639 196.023 97.1719 196.708 97.1719 197.523V198.091H90.4446V196.932H95.8082C95.8082 196.439 95.7098 196 95.5128 195.614C95.3196 195.227 95.0431 194.922 94.6832 194.699C94.3272 194.475 93.9067 194.364 93.4219 194.364C92.8878 194.364 92.4257 194.496 92.0355 194.761C91.6491 195.023 91.3518 195.364 91.1435 195.784C90.9351 196.205 90.831 196.655 90.831 197.136V197.909C90.831 198.568 90.9446 199.127 91.1719 199.585C91.4029 200.04 91.723 200.386 92.1321 200.625C92.5412 200.86 93.0166 200.977 93.5582 200.977C93.9105 200.977 94.2287 200.928 94.5128 200.83C94.8007 200.727 95.0488 200.576 95.2571 200.375C95.4654 200.17 95.6264 199.917 95.7401 199.614L97.0355 199.977C96.8991 200.417 96.67 200.803 96.348 201.136C96.026 201.466 95.6283 201.723 95.1548 201.909C94.6813 202.091 94.1491 202.182 93.5582 202.182ZM107.507 193.273V194.409H102.984V193.273H107.507ZM104.303 191.182H105.643V199.5C105.643 199.879 105.698 200.163 105.808 200.352C105.922 200.538 106.066 200.663 106.24 200.727C106.418 200.788 106.606 200.818 106.803 200.818C106.95 200.818 107.071 200.811 107.166 200.795C107.261 200.777 107.337 200.761 107.393 200.75L107.666 201.955C107.575 201.989 107.448 202.023 107.286 202.057C107.123 202.095 106.916 202.114 106.666 202.114C106.287 202.114 105.916 202.032 105.553 201.869C105.193 201.706 104.893 201.458 104.655 201.125C104.42 200.792 104.303 200.371 104.303 199.864V191.182ZM109.524 202V193.273H110.865V202H109.524ZM110.206 191.818C109.945 191.818 109.719 191.729 109.53 191.551C109.344 191.373 109.251 191.159 109.251 190.909C109.251 190.659 109.344 190.445 109.53 190.267C109.719 190.089 109.945 190 110.206 190C110.467 190 110.691 190.089 110.876 190.267C111.066 190.445 111.161 190.659 111.161 190.909C111.161 191.159 111.066 191.373 110.876 191.551C110.691 191.729 110.467 191.818 110.206 191.818ZM113.321 202V193.273H114.616V194.636H114.73C114.912 194.17 115.205 193.809 115.611 193.551C116.016 193.29 116.503 193.159 117.071 193.159C117.647 193.159 118.126 193.29 118.509 193.551C118.895 193.809 119.196 194.17 119.412 194.636H119.503C119.726 194.186 120.062 193.828 120.509 193.562C120.955 193.294 121.491 193.159 122.116 193.159C122.897 193.159 123.535 193.403 124.031 193.892C124.527 194.377 124.776 195.133 124.776 196.159V202H123.435V196.159C123.435 195.515 123.259 195.055 122.906 194.778C122.554 194.502 122.139 194.364 121.662 194.364C121.048 194.364 120.573 194.549 120.236 194.92C119.899 195.288 119.73 195.754 119.73 196.318V202H118.366V196.023C118.366 195.527 118.205 195.127 117.884 194.824C117.562 194.517 117.147 194.364 116.639 194.364C116.291 194.364 115.965 194.456 115.662 194.642C115.363 194.828 115.12 195.085 114.935 195.415C114.753 195.741 114.662 196.117 114.662 196.545V202H113.321ZM130.886 202.182C130.045 202.182 129.32 201.996 128.71 201.625C128.104 201.25 127.636 200.727 127.307 200.057C126.981 199.383 126.818 198.598 126.818 197.705C126.818 196.811 126.981 196.023 127.307 195.341C127.636 194.655 128.095 194.121 128.682 193.739C129.273 193.352 129.962 193.159 130.75 193.159C131.205 193.159 131.653 193.235 132.097 193.386C132.54 193.538 132.943 193.784 133.307 194.125C133.67 194.462 133.96 194.909 134.176 195.466C134.392 196.023 134.5 196.708 134.5 197.523V198.091H127.773V196.932H133.136C133.136 196.439 133.038 196 132.841 195.614C132.648 195.227 132.371 194.922 132.011 194.699C131.655 194.475 131.235 194.364 130.75 194.364C130.216 194.364 129.754 194.496 129.364 194.761C128.977 195.023 128.68 195.364 128.472 195.784C128.263 196.205 128.159 196.655 128.159 197.136V197.909C128.159 198.568 128.273 199.127 128.5 199.585C128.731 200.04 129.051 200.386 129.46 200.625C129.869 200.86 130.345 200.977 130.886 200.977C131.239 200.977 131.557 200.928 131.841 200.83C132.129 200.727 132.377 200.576 132.585 200.375C132.794 200.17 132.955 199.917 133.068 199.614L134.364 199.977C134.227 200.417 133.998 200.803 133.676 201.136C133.354 201.466 132.956 201.723 132.483 201.909C132.009 202.091 131.477 202.182 130.886 202.182ZM136.54 202V193.273H137.835V194.591H137.926C138.085 194.159 138.373 193.809 138.79 193.54C139.206 193.271 139.676 193.136 140.199 193.136C140.297 193.136 140.42 193.138 140.568 193.142C140.716 193.146 140.828 193.152 140.903 193.159V194.523C140.858 194.511 140.754 194.494 140.591 194.472C140.432 194.445 140.263 194.432 140.085 194.432C139.661 194.432 139.282 194.521 138.949 194.699C138.619 194.873 138.358 195.116 138.165 195.426C137.975 195.733 137.881 196.083 137.881 196.477V202H136.54ZM142.47 202.091C142.19 202.091 141.949 201.991 141.749 201.79C141.548 201.589 141.447 201.348 141.447 201.068C141.447 200.788 141.548 200.547 141.749 200.347C141.949 200.146 142.19 200.045 142.47 200.045C142.75 200.045 142.991 200.146 143.192 200.347C143.393 200.547 143.493 200.788 143.493 201.068C143.493 201.254 143.446 201.424 143.351 201.58C143.26 201.735 143.137 201.86 142.982 201.955C142.83 202.045 142.66 202.091 142.47 202.091Z" fill="#27374D"/>
<defs>
<filter id="filter0_d_917_1259" x="31.1154" y="0.114746" width="96.8528" height="165.771" filterUnits="userSpaceOnUse" color-interpolation-filters="sRGB">
<feFlood flood-opacity="0" result="BackgroundImageFix"/>
<feColorMatrix in="SourceAlpha" type="matrix" values="0 0 0 0 0 0 0 0 0 0 0 0 0 0 0 0 0 0 127 0" result="hardAlpha"/>
<feOffset dx="5" dy="10"/>
<feGaussianBlur stdDeviation="2"/>
<feComposite in2="hardAlpha" operator="out"/>
<feColorMatrix type="matrix" values="0 0 0 0 0 0 0 0 0 0 0 0 0 0 0 0 0 0 0.25 0"/>
<feBlend mode="normal" in2="BackgroundImageFix" result="effect1_dropShadow_917_1259"/>
<feBlend mode="normal" in="SourceGraphic" in2="effect1_dropShadow_917_1259" result="shape"/>
</filter>
</defs>
</svg>
